<mxfile host="app.diagrams.net" agent="Mozilla/5.0 (Windows NT 10.0; Win64; x64) AppleWebKit/537.36 (KHTML, like Gecko) Chrome/131.0.0.0 Safari/537.36 Edg/131.0.0.0" version="24.9.0">
  <diagram id="prtHgNgQTEPvFCAcTncT" name="Page-1">
    <mxGraphModel dx="5156" dy="1052" grid="1" gridSize="10" guides="1" tooltips="1" connect="1" arrows="1" fold="1" page="1" pageScale="1" pageWidth="827" pageHeight="1169" math="0" shadow="0">
      <root>
        <mxCell id="0" />
        <mxCell id="1" parent="0" />
        <mxCell id="gr5SGPujoa0xiO7zdh5w-5" style="edgeStyle=orthogonalEdgeStyle;rounded=0;orthogonalLoop=1;jettySize=auto;html=1;exitX=0.5;exitY=1;exitDx=0;exitDy=0;entryX=0.5;entryY=0;entryDx=0;entryDy=0;" parent="1" source="gr5SGPujoa0xiO7zdh5w-1" target="gr5SGPujoa0xiO7zdh5w-3" edge="1">
          <mxGeometry relative="1" as="geometry" />
        </mxCell>
        <mxCell id="gr5SGPujoa0xiO7zdh5w-6" value="1" style="edgeLabel;html=1;align=center;verticalAlign=middle;resizable=0;points=[];" parent="gr5SGPujoa0xiO7zdh5w-5" vertex="1" connectable="0">
          <mxGeometry x="-0.2222" y="3" relative="1" as="geometry">
            <mxPoint as="offset" />
          </mxGeometry>
        </mxCell>
        <mxCell id="gr5SGPujoa0xiO7zdh5w-9" style="edgeStyle=orthogonalEdgeStyle;rounded=0;orthogonalLoop=1;jettySize=auto;html=1;" parent="1" source="gr5SGPujoa0xiO7zdh5w-1" target="gr5SGPujoa0xiO7zdh5w-8" edge="1">
          <mxGeometry relative="1" as="geometry" />
        </mxCell>
        <mxCell id="gr5SGPujoa0xiO7zdh5w-10" value="&lt;div&gt;0&lt;/div&gt;" style="edgeLabel;html=1;align=center;verticalAlign=middle;resizable=0;points=[];" parent="gr5SGPujoa0xiO7zdh5w-9" vertex="1" connectable="0">
          <mxGeometry x="-0.0606" y="2" relative="1" as="geometry">
            <mxPoint as="offset" />
          </mxGeometry>
        </mxCell>
        <mxCell id="gr5SGPujoa0xiO7zdh5w-1" value="&lt;b&gt;S&lt;/b&gt;" style="rhombus;whiteSpace=wrap;html=1;" parent="1" vertex="1">
          <mxGeometry x="374" y="80" width="80" height="80" as="geometry" />
        </mxCell>
        <mxCell id="gr5SGPujoa0xiO7zdh5w-12" value="" style="edgeStyle=orthogonalEdgeStyle;rounded=0;orthogonalLoop=1;jettySize=auto;html=1;" parent="1" source="gr5SGPujoa0xiO7zdh5w-3" target="gr5SGPujoa0xiO7zdh5w-11" edge="1">
          <mxGeometry relative="1" as="geometry" />
        </mxCell>
        <mxCell id="gr5SGPujoa0xiO7zdh5w-13" value="1" style="edgeLabel;html=1;align=center;verticalAlign=middle;resizable=0;points=[];" parent="gr5SGPujoa0xiO7zdh5w-12" vertex="1" connectable="0">
          <mxGeometry y="-2" relative="1" as="geometry">
            <mxPoint as="offset" />
          </mxGeometry>
        </mxCell>
        <mxCell id="gr5SGPujoa0xiO7zdh5w-23" value="" style="edgeStyle=orthogonalEdgeStyle;rounded=0;orthogonalLoop=1;jettySize=auto;html=1;" parent="1" source="gr5SGPujoa0xiO7zdh5w-3" target="gr5SGPujoa0xiO7zdh5w-22" edge="1">
          <mxGeometry relative="1" as="geometry" />
        </mxCell>
        <mxCell id="gr5SGPujoa0xiO7zdh5w-24" value="0" style="edgeLabel;html=1;align=center;verticalAlign=middle;resizable=0;points=[];" parent="gr5SGPujoa0xiO7zdh5w-23" vertex="1" connectable="0">
          <mxGeometry x="-0.2857" y="2" relative="1" as="geometry">
            <mxPoint as="offset" />
          </mxGeometry>
        </mxCell>
        <mxCell id="gr5SGPujoa0xiO7zdh5w-3" value="&lt;b&gt;R&lt;/b&gt;" style="rhombus;whiteSpace=wrap;html=1;" parent="1" vertex="1">
          <mxGeometry x="374" y="250" width="80" height="80" as="geometry" />
        </mxCell>
        <mxCell id="gr5SGPujoa0xiO7zdh5w-8" value="&lt;b&gt;HALT&lt;/b&gt;" style="rounded=0;whiteSpace=wrap;html=1;" parent="1" vertex="1">
          <mxGeometry x="520" y="90" width="120" height="60" as="geometry" />
        </mxCell>
        <mxCell id="gr5SGPujoa0xiO7zdh5w-15" value="" style="edgeStyle=orthogonalEdgeStyle;rounded=0;orthogonalLoop=1;jettySize=auto;html=1;" parent="1" source="gr5SGPujoa0xiO7zdh5w-11" target="gr5SGPujoa0xiO7zdh5w-14" edge="1">
          <mxGeometry relative="1" as="geometry" />
        </mxCell>
        <mxCell id="gr5SGPujoa0xiO7zdh5w-11" value="&lt;b&gt;AR &amp;lt;== 0&lt;/b&gt;&lt;div&gt;&lt;b&gt;TR &amp;lt;== PC&lt;/b&gt;&lt;/div&gt;" style="whiteSpace=wrap;html=1;" parent="1" vertex="1">
          <mxGeometry x="520" y="260" width="120" height="60" as="geometry" />
        </mxCell>
        <mxCell id="gr5SGPujoa0xiO7zdh5w-17" value="" style="edgeStyle=orthogonalEdgeStyle;rounded=0;orthogonalLoop=1;jettySize=auto;html=1;" parent="1" source="gr5SGPujoa0xiO7zdh5w-14" target="gr5SGPujoa0xiO7zdh5w-16" edge="1">
          <mxGeometry relative="1" as="geometry" />
        </mxCell>
        <mxCell id="gr5SGPujoa0xiO7zdh5w-14" value="&lt;b&gt;PC &amp;lt;== 0&lt;/b&gt;&lt;div&gt;&lt;b&gt;M[AR] &amp;lt;== TR&lt;/b&gt;&lt;/div&gt;" style="whiteSpace=wrap;html=1;" parent="1" vertex="1">
          <mxGeometry x="520" y="400" width="120" height="60" as="geometry" />
        </mxCell>
        <mxCell id="gr5SGPujoa0xiO7zdh5w-16" value="&lt;div&gt;&lt;b&gt;PC &amp;lt;== PC + 1&lt;/b&gt;&lt;/div&gt;&lt;b&gt;IEN &amp;lt;== 0&lt;/b&gt;&lt;div&gt;&lt;b&gt;R &amp;lt;== 0&lt;/b&gt;&lt;/div&gt;&lt;div&gt;&lt;b&gt;SC &amp;lt;== 0&lt;/b&gt;&lt;/div&gt;" style="whiteSpace=wrap;html=1;" parent="1" vertex="1">
          <mxGeometry x="520" y="540" width="120" height="60" as="geometry" />
        </mxCell>
        <mxCell id="gr5SGPujoa0xiO7zdh5w-26" value="" style="edgeStyle=orthogonalEdgeStyle;rounded=0;orthogonalLoop=1;jettySize=auto;html=1;" parent="1" source="gr5SGPujoa0xiO7zdh5w-22" target="gr5SGPujoa0xiO7zdh5w-25" edge="1">
          <mxGeometry relative="1" as="geometry" />
        </mxCell>
        <mxCell id="gr5SGPujoa0xiO7zdh5w-22" value="AR &amp;lt;== PC" style="whiteSpace=wrap;html=1;" parent="1" vertex="1">
          <mxGeometry x="354" y="400" width="120" height="60" as="geometry" />
        </mxCell>
        <mxCell id="gr5SGPujoa0xiO7zdh5w-28" value="" style="edgeStyle=orthogonalEdgeStyle;rounded=0;orthogonalLoop=1;jettySize=auto;html=1;" parent="1" source="gr5SGPujoa0xiO7zdh5w-25" target="gr5SGPujoa0xiO7zdh5w-27" edge="1">
          <mxGeometry relative="1" as="geometry" />
        </mxCell>
        <mxCell id="gr5SGPujoa0xiO7zdh5w-25" value="IR &amp;lt;== M[AR]" style="whiteSpace=wrap;html=1;" parent="1" vertex="1">
          <mxGeometry x="354" y="525" width="120" height="60" as="geometry" />
        </mxCell>
        <mxCell id="gr5SGPujoa0xiO7zdh5w-30" value="" style="edgeStyle=orthogonalEdgeStyle;rounded=0;orthogonalLoop=1;jettySize=auto;html=1;exitX=0.5;exitY=1;exitDx=0;exitDy=0;" parent="1" source="gr5SGPujoa0xiO7zdh5w-27" target="gr5SGPujoa0xiO7zdh5w-29" edge="1">
          <mxGeometry relative="1" as="geometry">
            <mxPoint x="424" y="870" as="sourcePoint" />
          </mxGeometry>
        </mxCell>
        <mxCell id="gr5SGPujoa0xiO7zdh5w-33" value="" style="edgeStyle=orthogonalEdgeStyle;rounded=0;orthogonalLoop=1;jettySize=auto;html=1;" parent="1" source="gr5SGPujoa0xiO7zdh5w-27" target="gr5SGPujoa0xiO7zdh5w-32" edge="1">
          <mxGeometry relative="1" as="geometry" />
        </mxCell>
        <mxCell id="gr5SGPujoa0xiO7zdh5w-27" value="AR &amp;lt;== IR&lt;div&gt;I &amp;lt;== IR[15]&lt;/div&gt;" style="whiteSpace=wrap;html=1;" parent="1" vertex="1">
          <mxGeometry x="354" y="640" width="120" height="60" as="geometry" />
        </mxCell>
        <mxCell id="gr5SGPujoa0xiO7zdh5w-47" value="" style="edgeStyle=orthogonalEdgeStyle;rounded=0;orthogonalLoop=1;jettySize=auto;html=1;" parent="1" source="gr5SGPujoa0xiO7zdh5w-29" target="gr5SGPujoa0xiO7zdh5w-46" edge="1">
          <mxGeometry relative="1" as="geometry" />
        </mxCell>
        <mxCell id="gr5SGPujoa0xiO7zdh5w-177" value="1" style="edgeLabel;html=1;align=center;verticalAlign=middle;resizable=0;points=[];" parent="gr5SGPujoa0xiO7zdh5w-47" vertex="1" connectable="0">
          <mxGeometry x="-0.8499" y="1" relative="1" as="geometry">
            <mxPoint as="offset" />
          </mxGeometry>
        </mxCell>
        <mxCell id="gr5SGPujoa0xiO7zdh5w-202" value="" style="edgeStyle=orthogonalEdgeStyle;rounded=0;orthogonalLoop=1;jettySize=auto;html=1;" parent="1" source="gr5SGPujoa0xiO7zdh5w-29" target="gr5SGPujoa0xiO7zdh5w-201" edge="1">
          <mxGeometry relative="1" as="geometry" />
        </mxCell>
        <mxCell id="gr5SGPujoa0xiO7zdh5w-29" value="D7" style="rhombus;whiteSpace=wrap;html=1;" parent="1" vertex="1">
          <mxGeometry x="373" y="1250" width="80" height="80" as="geometry" />
        </mxCell>
        <mxCell id="gr5SGPujoa0xiO7zdh5w-35" value="" style="edgeStyle=orthogonalEdgeStyle;rounded=0;orthogonalLoop=1;jettySize=auto;html=1;" parent="1" source="gr5SGPujoa0xiO7zdh5w-32" target="gr5SGPujoa0xiO7zdh5w-34" edge="1">
          <mxGeometry relative="1" as="geometry" />
        </mxCell>
        <mxCell id="gr5SGPujoa0xiO7zdh5w-36" value="1" style="edgeLabel;html=1;align=center;verticalAlign=middle;resizable=0;points=[];" parent="gr5SGPujoa0xiO7zdh5w-35" vertex="1" connectable="0">
          <mxGeometry x="-0.375" y="-3" relative="1" as="geometry">
            <mxPoint as="offset" />
          </mxGeometry>
        </mxCell>
        <mxCell id="gr5SGPujoa0xiO7zdh5w-313" style="edgeStyle=orthogonalEdgeStyle;rounded=0;orthogonalLoop=1;jettySize=auto;html=1;" parent="1" source="gr5SGPujoa0xiO7zdh5w-32" edge="1">
          <mxGeometry relative="1" as="geometry">
            <mxPoint x="2720" y="2640" as="targetPoint" />
          </mxGeometry>
        </mxCell>
        <mxCell id="gr5SGPujoa0xiO7zdh5w-314" value="0" style="edgeLabel;html=1;align=center;verticalAlign=middle;resizable=0;points=[];" parent="gr5SGPujoa0xiO7zdh5w-313" vertex="1" connectable="0">
          <mxGeometry x="-0.9131" y="-1" relative="1" as="geometry">
            <mxPoint x="1" as="offset" />
          </mxGeometry>
        </mxCell>
        <mxCell id="gr5SGPujoa0xiO7zdh5w-32" value="&lt;b&gt;IEN&lt;/b&gt;" style="rhombus;whiteSpace=wrap;html=1;" parent="1" vertex="1">
          <mxGeometry x="2860" y="980" width="80" height="80" as="geometry" />
        </mxCell>
        <mxCell id="gr5SGPujoa0xiO7zdh5w-40" value="" style="edgeStyle=orthogonalEdgeStyle;rounded=0;orthogonalLoop=1;jettySize=auto;html=1;" parent="1" source="gr5SGPujoa0xiO7zdh5w-34" target="gr5SGPujoa0xiO7zdh5w-39" edge="1">
          <mxGeometry relative="1" as="geometry" />
        </mxCell>
        <mxCell id="gr5SGPujoa0xiO7zdh5w-41" value="0" style="edgeLabel;html=1;align=center;verticalAlign=middle;resizable=0;points=[];" parent="gr5SGPujoa0xiO7zdh5w-40" vertex="1" connectable="0">
          <mxGeometry x="-0.275" y="1" relative="1" as="geometry">
            <mxPoint as="offset" />
          </mxGeometry>
        </mxCell>
        <mxCell id="gr5SGPujoa0xiO7zdh5w-44" style="edgeStyle=orthogonalEdgeStyle;rounded=0;orthogonalLoop=1;jettySize=auto;html=1;" parent="1" source="gr5SGPujoa0xiO7zdh5w-34" target="gr5SGPujoa0xiO7zdh5w-42" edge="1">
          <mxGeometry relative="1" as="geometry" />
        </mxCell>
        <mxCell id="gr5SGPujoa0xiO7zdh5w-45" value="1" style="edgeLabel;html=1;align=center;verticalAlign=middle;resizable=0;points=[];" parent="gr5SGPujoa0xiO7zdh5w-44" vertex="1" connectable="0">
          <mxGeometry x="-0.64" y="-2" relative="1" as="geometry">
            <mxPoint as="offset" />
          </mxGeometry>
        </mxCell>
        <mxCell id="gr5SGPujoa0xiO7zdh5w-34" value="FGI" style="rhombus;whiteSpace=wrap;html=1;" parent="1" vertex="1">
          <mxGeometry x="2860" y="1140" width="80" height="80" as="geometry" />
        </mxCell>
        <mxCell id="gr5SGPujoa0xiO7zdh5w-43" value="" style="edgeStyle=orthogonalEdgeStyle;rounded=0;orthogonalLoop=1;jettySize=auto;html=1;" parent="1" source="gr5SGPujoa0xiO7zdh5w-39" target="gr5SGPujoa0xiO7zdh5w-42" edge="1">
          <mxGeometry relative="1" as="geometry" />
        </mxCell>
        <mxCell id="gr5SGPujoa0xiO7zdh5w-101" value="1" style="edgeLabel;html=1;align=center;verticalAlign=middle;resizable=0;points=[];" parent="gr5SGPujoa0xiO7zdh5w-43" vertex="1" connectable="0">
          <mxGeometry x="-0.1905" y="-3" relative="1" as="geometry">
            <mxPoint as="offset" />
          </mxGeometry>
        </mxCell>
        <mxCell id="gr5SGPujoa0xiO7zdh5w-317" style="edgeStyle=orthogonalEdgeStyle;rounded=0;orthogonalLoop=1;jettySize=auto;html=1;" parent="1" source="gr5SGPujoa0xiO7zdh5w-39" edge="1">
          <mxGeometry relative="1" as="geometry">
            <mxPoint x="2900" y="2640" as="targetPoint" />
          </mxGeometry>
        </mxCell>
        <mxCell id="gr5SGPujoa0xiO7zdh5w-318" value="0" style="edgeLabel;html=1;align=center;verticalAlign=middle;resizable=0;points=[];" parent="gr5SGPujoa0xiO7zdh5w-317" vertex="1" connectable="0">
          <mxGeometry x="-0.8803" y="-2" relative="1" as="geometry">
            <mxPoint as="offset" />
          </mxGeometry>
        </mxCell>
        <mxCell id="gr5SGPujoa0xiO7zdh5w-39" value="FGO" style="rhombus;whiteSpace=wrap;html=1;" parent="1" vertex="1">
          <mxGeometry x="2860" y="1300" width="80" height="80" as="geometry" />
        </mxCell>
        <mxCell id="gr5SGPujoa0xiO7zdh5w-319" style="edgeStyle=orthogonalEdgeStyle;rounded=0;orthogonalLoop=1;jettySize=auto;html=1;" parent="1" source="gr5SGPujoa0xiO7zdh5w-42" edge="1">
          <mxGeometry relative="1" as="geometry">
            <mxPoint x="3100" y="2641" as="targetPoint" />
            <Array as="points">
              <mxPoint x="3100" y="2641" />
            </Array>
          </mxGeometry>
        </mxCell>
        <mxCell id="gr5SGPujoa0xiO7zdh5w-42" value="R &amp;lt;== 1" style="whiteSpace=wrap;html=1;" parent="1" vertex="1">
          <mxGeometry x="3040" y="1310" width="120" height="60" as="geometry" />
        </mxCell>
        <mxCell id="gr5SGPujoa0xiO7zdh5w-51" value="" style="edgeStyle=orthogonalEdgeStyle;rounded=0;orthogonalLoop=1;jettySize=auto;html=1;" parent="1" source="gr5SGPujoa0xiO7zdh5w-46" target="gr5SGPujoa0xiO7zdh5w-50" edge="1">
          <mxGeometry relative="1" as="geometry" />
        </mxCell>
        <mxCell id="gr5SGPujoa0xiO7zdh5w-60" value="1" style="edgeLabel;html=1;align=center;verticalAlign=middle;resizable=0;points=[];" parent="gr5SGPujoa0xiO7zdh5w-51" vertex="1" connectable="0">
          <mxGeometry x="-0.6167" y="-5" relative="1" as="geometry">
            <mxPoint as="offset" />
          </mxGeometry>
        </mxCell>
        <mxCell id="gr5SGPujoa0xiO7zdh5w-103" value="" style="edgeStyle=orthogonalEdgeStyle;rounded=0;orthogonalLoop=1;jettySize=auto;html=1;" parent="1" source="gr5SGPujoa0xiO7zdh5w-46" target="gr5SGPujoa0xiO7zdh5w-102" edge="1">
          <mxGeometry relative="1" as="geometry" />
        </mxCell>
        <mxCell id="gr5SGPujoa0xiO7zdh5w-104" value="0" style="edgeLabel;html=1;align=center;verticalAlign=middle;resizable=0;points=[];" parent="gr5SGPujoa0xiO7zdh5w-103" vertex="1" connectable="0">
          <mxGeometry x="-0.6818" y="1" relative="1" as="geometry">
            <mxPoint as="offset" />
          </mxGeometry>
        </mxCell>
        <mxCell id="gr5SGPujoa0xiO7zdh5w-46" value="&lt;b&gt;I&lt;/b&gt;" style="rhombus;whiteSpace=wrap;html=1;" parent="1" vertex="1">
          <mxGeometry x="-870" y="1560" width="80" height="80" as="geometry" />
        </mxCell>
        <mxCell id="gr5SGPujoa0xiO7zdh5w-55" value="" style="edgeStyle=orthogonalEdgeStyle;rounded=0;orthogonalLoop=1;jettySize=auto;html=1;" parent="1" source="gr5SGPujoa0xiO7zdh5w-50" target="gr5SGPujoa0xiO7zdh5w-54" edge="1">
          <mxGeometry relative="1" as="geometry">
            <Array as="points">
              <mxPoint x="-692.31" y="1870" />
              <mxPoint x="-692.31" y="1870" />
            </Array>
          </mxGeometry>
        </mxCell>
        <mxCell id="gr5SGPujoa0xiO7zdh5w-58" value="1" style="edgeLabel;html=1;align=center;verticalAlign=middle;resizable=0;points=[];" parent="gr5SGPujoa0xiO7zdh5w-55" vertex="1" connectable="0">
          <mxGeometry x="-0.15" y="3" relative="1" as="geometry">
            <mxPoint as="offset" />
          </mxGeometry>
        </mxCell>
        <mxCell id="gr5SGPujoa0xiO7zdh5w-57" value="" style="edgeStyle=orthogonalEdgeStyle;rounded=0;orthogonalLoop=1;jettySize=auto;html=1;" parent="1" source="gr5SGPujoa0xiO7zdh5w-50" target="gr5SGPujoa0xiO7zdh5w-56" edge="1">
          <mxGeometry relative="1" as="geometry" />
        </mxCell>
        <mxCell id="gr5SGPujoa0xiO7zdh5w-59" value="0" style="edgeLabel;html=1;align=center;verticalAlign=middle;resizable=0;points=[];" parent="gr5SGPujoa0xiO7zdh5w-57" vertex="1" connectable="0">
          <mxGeometry x="0.05" y="2" relative="1" as="geometry">
            <mxPoint as="offset" />
          </mxGeometry>
        </mxCell>
        <mxCell id="gr5SGPujoa0xiO7zdh5w-50" value="&lt;b&gt;F800&lt;/b&gt;" style="rhombus;whiteSpace=wrap;html=1;" parent="1" vertex="1">
          <mxGeometry x="-732.31" y="1750" width="80" height="80" as="geometry" />
        </mxCell>
        <mxCell id="gr5SGPujoa0xiO7zdh5w-285" style="edgeStyle=orthogonalEdgeStyle;rounded=0;orthogonalLoop=1;jettySize=auto;html=1;" parent="1" source="gr5SGPujoa0xiO7zdh5w-54" edge="1">
          <mxGeometry relative="1" as="geometry">
            <mxPoint x="-692.3099999999995" y="2640" as="targetPoint" />
          </mxGeometry>
        </mxCell>
        <mxCell id="gr5SGPujoa0xiO7zdh5w-54" value="AC &amp;lt;== INPR&lt;div&gt;FGI &amp;lt;== 0&lt;br&gt;&lt;div&gt;SC &amp;lt;== 0&lt;/div&gt;&lt;/div&gt;" style="whiteSpace=wrap;html=1;" parent="1" vertex="1">
          <mxGeometry x="-752.31" y="1910" width="120" height="60" as="geometry" />
        </mxCell>
        <mxCell id="gr5SGPujoa0xiO7zdh5w-62" value="" style="edgeStyle=orthogonalEdgeStyle;rounded=0;orthogonalLoop=1;jettySize=auto;html=1;" parent="1" source="gr5SGPujoa0xiO7zdh5w-56" target="gr5SGPujoa0xiO7zdh5w-61" edge="1">
          <mxGeometry relative="1" as="geometry" />
        </mxCell>
        <mxCell id="gr5SGPujoa0xiO7zdh5w-63" value="" style="edgeStyle=orthogonalEdgeStyle;rounded=0;orthogonalLoop=1;jettySize=auto;html=1;" parent="1" source="gr5SGPujoa0xiO7zdh5w-56" target="gr5SGPujoa0xiO7zdh5w-61" edge="1">
          <mxGeometry relative="1" as="geometry" />
        </mxCell>
        <mxCell id="gr5SGPujoa0xiO7zdh5w-64" value="1" style="edgeLabel;html=1;align=center;verticalAlign=middle;resizable=0;points=[];" parent="gr5SGPujoa0xiO7zdh5w-63" vertex="1" connectable="0">
          <mxGeometry x="-0.25" y="5" relative="1" as="geometry">
            <mxPoint as="offset" />
          </mxGeometry>
        </mxCell>
        <mxCell id="gr5SGPujoa0xiO7zdh5w-66" value="" style="edgeStyle=orthogonalEdgeStyle;rounded=0;orthogonalLoop=1;jettySize=auto;html=1;" parent="1" source="gr5SGPujoa0xiO7zdh5w-56" target="gr5SGPujoa0xiO7zdh5w-65" edge="1">
          <mxGeometry relative="1" as="geometry" />
        </mxCell>
        <mxCell id="gr5SGPujoa0xiO7zdh5w-70" value="0" style="edgeLabel;html=1;align=center;verticalAlign=middle;resizable=0;points=[];" parent="gr5SGPujoa0xiO7zdh5w-66" vertex="1" connectable="0">
          <mxGeometry x="0.1667" y="-4" relative="1" as="geometry">
            <mxPoint as="offset" />
          </mxGeometry>
        </mxCell>
        <mxCell id="gr5SGPujoa0xiO7zdh5w-56" value="F400" style="rhombus;whiteSpace=wrap;html=1;" parent="1" vertex="1">
          <mxGeometry x="-532.31" y="1750" width="80" height="80" as="geometry" />
        </mxCell>
        <mxCell id="gr5SGPujoa0xiO7zdh5w-284" style="edgeStyle=orthogonalEdgeStyle;rounded=0;orthogonalLoop=1;jettySize=auto;html=1;" parent="1" source="gr5SGPujoa0xiO7zdh5w-61" edge="1">
          <mxGeometry relative="1" as="geometry">
            <mxPoint x="-492.3099999999995" y="2640" as="targetPoint" />
          </mxGeometry>
        </mxCell>
        <mxCell id="gr5SGPujoa0xiO7zdh5w-61" value="OUTR&amp;nbsp;&amp;lt;== AC&lt;div&gt;FGO &amp;lt;== 0&lt;br&gt;&lt;div&gt;SC &amp;lt;== 0&lt;/div&gt;&lt;/div&gt;" style="whiteSpace=wrap;html=1;" parent="1" vertex="1">
          <mxGeometry x="-552.31" y="1910" width="120" height="60" as="geometry" />
        </mxCell>
        <mxCell id="gr5SGPujoa0xiO7zdh5w-72" value="" style="edgeStyle=orthogonalEdgeStyle;rounded=0;orthogonalLoop=1;jettySize=auto;html=1;" parent="1" source="gr5SGPujoa0xiO7zdh5w-65" target="gr5SGPujoa0xiO7zdh5w-71" edge="1">
          <mxGeometry relative="1" as="geometry" />
        </mxCell>
        <mxCell id="gr5SGPujoa0xiO7zdh5w-75" value="1" style="edgeLabel;html=1;align=center;verticalAlign=middle;resizable=0;points=[];" parent="gr5SGPujoa0xiO7zdh5w-72" vertex="1" connectable="0">
          <mxGeometry x="-0.2" relative="1" as="geometry">
            <mxPoint as="offset" />
          </mxGeometry>
        </mxCell>
        <mxCell id="gr5SGPujoa0xiO7zdh5w-80" value="" style="edgeStyle=orthogonalEdgeStyle;rounded=0;orthogonalLoop=1;jettySize=auto;html=1;" parent="1" source="gr5SGPujoa0xiO7zdh5w-65" target="gr5SGPujoa0xiO7zdh5w-79" edge="1">
          <mxGeometry relative="1" as="geometry" />
        </mxCell>
        <mxCell id="gr5SGPujoa0xiO7zdh5w-91" value="0" style="edgeLabel;html=1;align=center;verticalAlign=middle;resizable=0;points=[];" parent="gr5SGPujoa0xiO7zdh5w-80" vertex="1" connectable="0">
          <mxGeometry x="-0.1111" y="-4" relative="1" as="geometry">
            <mxPoint as="offset" />
          </mxGeometry>
        </mxCell>
        <mxCell id="gr5SGPujoa0xiO7zdh5w-65" value="F200" style="rhombus;whiteSpace=wrap;html=1;" parent="1" vertex="1">
          <mxGeometry x="-352.31" y="1750" width="80" height="80" as="geometry" />
        </mxCell>
        <mxCell id="gr5SGPujoa0xiO7zdh5w-74" value="" style="edgeStyle=orthogonalEdgeStyle;rounded=0;orthogonalLoop=1;jettySize=auto;html=1;" parent="1" source="gr5SGPujoa0xiO7zdh5w-71" target="gr5SGPujoa0xiO7zdh5w-73" edge="1">
          <mxGeometry relative="1" as="geometry" />
        </mxCell>
        <mxCell id="gr5SGPujoa0xiO7zdh5w-76" value="1" style="edgeLabel;html=1;align=center;verticalAlign=middle;resizable=0;points=[];" parent="gr5SGPujoa0xiO7zdh5w-74" vertex="1" connectable="0">
          <mxGeometry x="-0.375" y="3" relative="1" as="geometry">
            <mxPoint as="offset" />
          </mxGeometry>
        </mxCell>
        <mxCell id="gr5SGPujoa0xiO7zdh5w-309" style="edgeStyle=orthogonalEdgeStyle;rounded=0;orthogonalLoop=1;jettySize=auto;html=1;" parent="1" source="gr5SGPujoa0xiO7zdh5w-71" edge="1">
          <mxGeometry relative="1" as="geometry">
            <mxPoint x="-200" y="2640" as="targetPoint" />
          </mxGeometry>
        </mxCell>
        <mxCell id="gr5SGPujoa0xiO7zdh5w-310" value="0" style="edgeLabel;html=1;align=center;verticalAlign=middle;resizable=0;points=[];" parent="gr5SGPujoa0xiO7zdh5w-309" vertex="1" connectable="0">
          <mxGeometry x="-0.9162" y="2" relative="1" as="geometry">
            <mxPoint as="offset" />
          </mxGeometry>
        </mxCell>
        <mxCell id="gr5SGPujoa0xiO7zdh5w-71" value="FGI" style="rhombus;whiteSpace=wrap;html=1;" parent="1" vertex="1">
          <mxGeometry x="-352.31" y="1910" width="80" height="80" as="geometry" />
        </mxCell>
        <mxCell id="gr5SGPujoa0xiO7zdh5w-282" style="edgeStyle=orthogonalEdgeStyle;rounded=0;orthogonalLoop=1;jettySize=auto;html=1;" parent="1" source="gr5SGPujoa0xiO7zdh5w-73" edge="1">
          <mxGeometry relative="1" as="geometry">
            <mxPoint x="-312.3100000000004" y="2640" as="targetPoint" />
          </mxGeometry>
        </mxCell>
        <mxCell id="gr5SGPujoa0xiO7zdh5w-73" value="PC &amp;lt;== PC + 1&lt;div&gt;SC &amp;lt;== 0&lt;/div&gt;" style="whiteSpace=wrap;html=1;" parent="1" vertex="1">
          <mxGeometry x="-372.31" y="2070" width="120" height="60" as="geometry" />
        </mxCell>
        <mxCell id="gr5SGPujoa0xiO7zdh5w-82" value="" style="edgeStyle=orthogonalEdgeStyle;rounded=0;orthogonalLoop=1;jettySize=auto;html=1;" parent="1" source="gr5SGPujoa0xiO7zdh5w-79" target="gr5SGPujoa0xiO7zdh5w-81" edge="1">
          <mxGeometry relative="1" as="geometry" />
        </mxCell>
        <mxCell id="gr5SGPujoa0xiO7zdh5w-87" value="1" style="edgeLabel;html=1;align=center;verticalAlign=middle;resizable=0;points=[];" parent="gr5SGPujoa0xiO7zdh5w-82" vertex="1" connectable="0">
          <mxGeometry x="-0.1357" y="3" relative="1" as="geometry">
            <mxPoint as="offset" />
          </mxGeometry>
        </mxCell>
        <mxCell id="gr5SGPujoa0xiO7zdh5w-86" value="" style="edgeStyle=orthogonalEdgeStyle;rounded=0;orthogonalLoop=1;jettySize=auto;html=1;" parent="1" source="gr5SGPujoa0xiO7zdh5w-79" target="gr5SGPujoa0xiO7zdh5w-85" edge="1">
          <mxGeometry relative="1" as="geometry" />
        </mxCell>
        <mxCell id="gr5SGPujoa0xiO7zdh5w-92" value="0" style="edgeLabel;html=1;align=center;verticalAlign=middle;resizable=0;points=[];" parent="gr5SGPujoa0xiO7zdh5w-86" vertex="1" connectable="0">
          <mxGeometry x="-0.3016" relative="1" as="geometry">
            <mxPoint as="offset" />
          </mxGeometry>
        </mxCell>
        <mxCell id="gr5SGPujoa0xiO7zdh5w-79" value="F100" style="rhombus;whiteSpace=wrap;html=1;" parent="1" vertex="1">
          <mxGeometry x="-152.31" y="1750" width="80" height="80" as="geometry" />
        </mxCell>
        <mxCell id="gr5SGPujoa0xiO7zdh5w-84" value="" style="edgeStyle=orthogonalEdgeStyle;rounded=0;orthogonalLoop=1;jettySize=auto;html=1;" parent="1" source="gr5SGPujoa0xiO7zdh5w-81" target="gr5SGPujoa0xiO7zdh5w-83" edge="1">
          <mxGeometry relative="1" as="geometry" />
        </mxCell>
        <mxCell id="gr5SGPujoa0xiO7zdh5w-88" value="1" style="edgeLabel;html=1;align=center;verticalAlign=middle;resizable=0;points=[];" parent="gr5SGPujoa0xiO7zdh5w-84" vertex="1" connectable="0">
          <mxGeometry x="-0.5405" y="2" relative="1" as="geometry">
            <mxPoint as="offset" />
          </mxGeometry>
        </mxCell>
        <mxCell id="gr5SGPujoa0xiO7zdh5w-311" style="edgeStyle=orthogonalEdgeStyle;rounded=0;orthogonalLoop=1;jettySize=auto;html=1;" parent="1" source="gr5SGPujoa0xiO7zdh5w-81" edge="1">
          <mxGeometry relative="1" as="geometry">
            <mxPoint x="-10" y="2640" as="targetPoint" />
          </mxGeometry>
        </mxCell>
        <mxCell id="gr5SGPujoa0xiO7zdh5w-312" value="0" style="edgeLabel;html=1;align=center;verticalAlign=middle;resizable=0;points=[];" parent="gr5SGPujoa0xiO7zdh5w-311" vertex="1" connectable="0">
          <mxGeometry x="-0.9292" y="5" relative="1" as="geometry">
            <mxPoint as="offset" />
          </mxGeometry>
        </mxCell>
        <mxCell id="gr5SGPujoa0xiO7zdh5w-81" value="FGO" style="rhombus;whiteSpace=wrap;html=1;" parent="1" vertex="1">
          <mxGeometry x="-152.31" y="1910" width="80" height="80" as="geometry" />
        </mxCell>
        <mxCell id="gr5SGPujoa0xiO7zdh5w-281" style="edgeStyle=orthogonalEdgeStyle;rounded=0;orthogonalLoop=1;jettySize=auto;html=1;" parent="1" source="gr5SGPujoa0xiO7zdh5w-83" edge="1">
          <mxGeometry relative="1" as="geometry">
            <mxPoint x="-112.3100000000004" y="2640" as="targetPoint" />
          </mxGeometry>
        </mxCell>
        <mxCell id="gr5SGPujoa0xiO7zdh5w-83" value="PC &amp;lt;== PC +1&lt;div&gt;SC &amp;lt;== 0&lt;/div&gt;" style="whiteSpace=wrap;html=1;" parent="1" vertex="1">
          <mxGeometry x="-172.31" y="2070" width="120" height="60" as="geometry" />
        </mxCell>
        <mxCell id="gr5SGPujoa0xiO7zdh5w-90" value="" style="edgeStyle=orthogonalEdgeStyle;rounded=0;orthogonalLoop=1;jettySize=auto;html=1;" parent="1" source="gr5SGPujoa0xiO7zdh5w-85" target="gr5SGPujoa0xiO7zdh5w-89" edge="1">
          <mxGeometry relative="1" as="geometry" />
        </mxCell>
        <mxCell id="gr5SGPujoa0xiO7zdh5w-93" value="1" style="edgeLabel;html=1;align=center;verticalAlign=middle;resizable=0;points=[];" parent="gr5SGPujoa0xiO7zdh5w-90" vertex="1" connectable="0">
          <mxGeometry x="-0.4452" y="1" relative="1" as="geometry">
            <mxPoint as="offset" />
          </mxGeometry>
        </mxCell>
        <mxCell id="gr5SGPujoa0xiO7zdh5w-95" value="" style="edgeStyle=orthogonalEdgeStyle;rounded=0;orthogonalLoop=1;jettySize=auto;html=1;" parent="1" source="gr5SGPujoa0xiO7zdh5w-85" target="gr5SGPujoa0xiO7zdh5w-94" edge="1">
          <mxGeometry relative="1" as="geometry" />
        </mxCell>
        <mxCell id="gr5SGPujoa0xiO7zdh5w-100" value="0" style="edgeLabel;html=1;align=center;verticalAlign=middle;resizable=0;points=[];" parent="gr5SGPujoa0xiO7zdh5w-95" vertex="1" connectable="0">
          <mxGeometry x="-0.081" y="1" relative="1" as="geometry">
            <mxPoint as="offset" />
          </mxGeometry>
        </mxCell>
        <mxCell id="gr5SGPujoa0xiO7zdh5w-85" value="F080" style="rhombus;whiteSpace=wrap;html=1;" parent="1" vertex="1">
          <mxGeometry x="47.69" y="1750" width="80" height="80" as="geometry" />
        </mxCell>
        <mxCell id="gr5SGPujoa0xiO7zdh5w-280" style="edgeStyle=orthogonalEdgeStyle;rounded=0;orthogonalLoop=1;jettySize=auto;html=1;" parent="1" source="gr5SGPujoa0xiO7zdh5w-89" edge="1">
          <mxGeometry relative="1" as="geometry">
            <mxPoint x="88" y="2640" as="targetPoint" />
          </mxGeometry>
        </mxCell>
        <mxCell id="gr5SGPujoa0xiO7zdh5w-89" value="IEN &amp;lt;== 1&lt;div&gt;SC &amp;lt;== 0&lt;/div&gt;" style="whiteSpace=wrap;html=1;" parent="1" vertex="1">
          <mxGeometry x="27.689999999999998" y="1910" width="120" height="60" as="geometry" />
        </mxCell>
        <mxCell id="gr5SGPujoa0xiO7zdh5w-97" value="" style="edgeStyle=orthogonalEdgeStyle;rounded=0;orthogonalLoop=1;jettySize=auto;html=1;" parent="1" source="gr5SGPujoa0xiO7zdh5w-94" target="gr5SGPujoa0xiO7zdh5w-96" edge="1">
          <mxGeometry relative="1" as="geometry" />
        </mxCell>
        <mxCell id="gr5SGPujoa0xiO7zdh5w-98" value="1" style="edgeLabel;html=1;align=center;verticalAlign=middle;resizable=0;points=[];" parent="gr5SGPujoa0xiO7zdh5w-97" vertex="1" connectable="0">
          <mxGeometry x="-0.231" y="-3" relative="1" as="geometry">
            <mxPoint as="offset" />
          </mxGeometry>
        </mxCell>
        <mxCell id="gr5SGPujoa0xiO7zdh5w-283" style="edgeStyle=orthogonalEdgeStyle;rounded=0;orthogonalLoop=1;jettySize=auto;html=1;" parent="1" source="gr5SGPujoa0xiO7zdh5w-94" edge="1">
          <mxGeometry relative="1" as="geometry">
            <mxPoint x="400" y="2640" as="targetPoint" />
          </mxGeometry>
        </mxCell>
        <mxCell id="gr5SGPujoa0xiO7zdh5w-94" value="F040" style="rhombus;whiteSpace=wrap;html=1;" parent="1" vertex="1">
          <mxGeometry x="241.69" y="1750" width="80" height="80" as="geometry" />
        </mxCell>
        <mxCell id="gr5SGPujoa0xiO7zdh5w-279" style="edgeStyle=orthogonalEdgeStyle;rounded=0;orthogonalLoop=1;jettySize=auto;html=1;" parent="1" source="gr5SGPujoa0xiO7zdh5w-96" edge="1">
          <mxGeometry relative="1" as="geometry">
            <mxPoint x="281.6899999999996" y="2640" as="targetPoint" />
          </mxGeometry>
        </mxCell>
        <mxCell id="gr5SGPujoa0xiO7zdh5w-96" value="IEN &amp;lt;== 0&lt;div&gt;SC &amp;lt;== 0&lt;/div&gt;" style="whiteSpace=wrap;html=1;" parent="1" vertex="1">
          <mxGeometry x="221.69" y="1910" width="120" height="60" as="geometry" />
        </mxCell>
        <mxCell id="gr5SGPujoa0xiO7zdh5w-106" value="" style="edgeStyle=orthogonalEdgeStyle;rounded=0;orthogonalLoop=1;jettySize=auto;html=1;" parent="1" source="gr5SGPujoa0xiO7zdh5w-102" target="gr5SGPujoa0xiO7zdh5w-105" edge="1">
          <mxGeometry relative="1" as="geometry" />
        </mxCell>
        <mxCell id="gr5SGPujoa0xiO7zdh5w-107" value="1" style="edgeLabel;html=1;align=center;verticalAlign=middle;resizable=0;points=[];" parent="gr5SGPujoa0xiO7zdh5w-106" vertex="1" connectable="0">
          <mxGeometry x="-0.1935" y="-1" relative="1" as="geometry">
            <mxPoint as="offset" />
          </mxGeometry>
        </mxCell>
        <mxCell id="gr5SGPujoa0xiO7zdh5w-109" value="" style="edgeStyle=orthogonalEdgeStyle;rounded=0;orthogonalLoop=1;jettySize=auto;html=1;" parent="1" source="gr5SGPujoa0xiO7zdh5w-102" target="gr5SGPujoa0xiO7zdh5w-108" edge="1">
          <mxGeometry relative="1" as="geometry" />
        </mxCell>
        <mxCell id="gr5SGPujoa0xiO7zdh5w-114" value="9" style="edgeLabel;html=1;align=center;verticalAlign=middle;resizable=0;points=[];" parent="gr5SGPujoa0xiO7zdh5w-109" vertex="1" connectable="0">
          <mxGeometry x="-0.3056" relative="1" as="geometry">
            <mxPoint as="offset" />
          </mxGeometry>
        </mxCell>
        <mxCell id="gr5SGPujoa0xiO7zdh5w-102" value="&lt;b&gt;7800&lt;/b&gt;" style="rhombus;whiteSpace=wrap;html=1;" parent="1" vertex="1">
          <mxGeometry x="-1010" y="1750" width="80" height="80" as="geometry" />
        </mxCell>
        <mxCell id="gr5SGPujoa0xiO7zdh5w-286" style="edgeStyle=orthogonalEdgeStyle;rounded=0;orthogonalLoop=1;jettySize=auto;html=1;" parent="1" source="gr5SGPujoa0xiO7zdh5w-105" edge="1">
          <mxGeometry relative="1" as="geometry">
            <mxPoint x="-970" y="2640" as="targetPoint" />
          </mxGeometry>
        </mxCell>
        <mxCell id="gr5SGPujoa0xiO7zdh5w-105" value="AC &amp;lt;== 0&lt;div&gt;SC &amp;lt;== 0&lt;/div&gt;" style="whiteSpace=wrap;html=1;" parent="1" vertex="1">
          <mxGeometry x="-1030" y="1910" width="120" height="60" as="geometry" />
        </mxCell>
        <mxCell id="gr5SGPujoa0xiO7zdh5w-113" value="" style="edgeStyle=orthogonalEdgeStyle;rounded=0;orthogonalLoop=1;jettySize=auto;html=1;" parent="1" source="gr5SGPujoa0xiO7zdh5w-108" target="gr5SGPujoa0xiO7zdh5w-112" edge="1">
          <mxGeometry relative="1" as="geometry" />
        </mxCell>
        <mxCell id="gr5SGPujoa0xiO7zdh5w-115" value="1" style="edgeLabel;html=1;align=center;verticalAlign=middle;resizable=0;points=[];" parent="gr5SGPujoa0xiO7zdh5w-113" vertex="1" connectable="0">
          <mxGeometry x="-0.5269" relative="1" as="geometry">
            <mxPoint as="offset" />
          </mxGeometry>
        </mxCell>
        <mxCell id="gr5SGPujoa0xiO7zdh5w-117" value="" style="edgeStyle=orthogonalEdgeStyle;rounded=0;orthogonalLoop=1;jettySize=auto;html=1;" parent="1" source="gr5SGPujoa0xiO7zdh5w-108" target="gr5SGPujoa0xiO7zdh5w-116" edge="1">
          <mxGeometry relative="1" as="geometry" />
        </mxCell>
        <mxCell id="gr5SGPujoa0xiO7zdh5w-120" value="0" style="edgeLabel;html=1;align=center;verticalAlign=middle;resizable=0;points=[];" parent="gr5SGPujoa0xiO7zdh5w-117" vertex="1" connectable="0">
          <mxGeometry x="-0.0216" y="2" relative="1" as="geometry">
            <mxPoint as="offset" />
          </mxGeometry>
        </mxCell>
        <mxCell id="gr5SGPujoa0xiO7zdh5w-108" value="&lt;b&gt;7400&lt;/b&gt;" style="rhombus;whiteSpace=wrap;html=1;" parent="1" vertex="1">
          <mxGeometry x="-1210" y="1750" width="80" height="80" as="geometry" />
        </mxCell>
        <mxCell id="gr5SGPujoa0xiO7zdh5w-287" style="edgeStyle=orthogonalEdgeStyle;rounded=0;orthogonalLoop=1;jettySize=auto;html=1;" parent="1" source="gr5SGPujoa0xiO7zdh5w-112" edge="1">
          <mxGeometry relative="1" as="geometry">
            <mxPoint x="-1170" y="2640" as="targetPoint" />
          </mxGeometry>
        </mxCell>
        <mxCell id="gr5SGPujoa0xiO7zdh5w-112" value="E &amp;lt;== 0&lt;div&gt;SC &amp;lt;== 0&lt;/div&gt;" style="whiteSpace=wrap;html=1;" parent="1" vertex="1">
          <mxGeometry x="-1230" y="1910" width="120" height="60" as="geometry" />
        </mxCell>
        <mxCell id="gr5SGPujoa0xiO7zdh5w-119" value="" style="edgeStyle=orthogonalEdgeStyle;rounded=0;orthogonalLoop=1;jettySize=auto;html=1;" parent="1" source="gr5SGPujoa0xiO7zdh5w-116" target="gr5SGPujoa0xiO7zdh5w-118" edge="1">
          <mxGeometry relative="1" as="geometry" />
        </mxCell>
        <mxCell id="gr5SGPujoa0xiO7zdh5w-121" value="1" style="edgeLabel;html=1;align=center;verticalAlign=middle;resizable=0;points=[];" parent="gr5SGPujoa0xiO7zdh5w-119" vertex="1" connectable="0">
          <mxGeometry x="-0.4713" relative="1" as="geometry">
            <mxPoint as="offset" />
          </mxGeometry>
        </mxCell>
        <mxCell id="gr5SGPujoa0xiO7zdh5w-123" value="" style="edgeStyle=orthogonalEdgeStyle;rounded=0;orthogonalLoop=1;jettySize=auto;html=1;" parent="1" source="gr5SGPujoa0xiO7zdh5w-116" target="gr5SGPujoa0xiO7zdh5w-122" edge="1">
          <mxGeometry relative="1" as="geometry" />
        </mxCell>
        <mxCell id="gr5SGPujoa0xiO7zdh5w-131" value="0" style="edgeLabel;html=1;align=center;verticalAlign=middle;resizable=0;points=[];" parent="gr5SGPujoa0xiO7zdh5w-123" vertex="1" connectable="0">
          <mxGeometry x="0.1636" relative="1" as="geometry">
            <mxPoint as="offset" />
          </mxGeometry>
        </mxCell>
        <mxCell id="gr5SGPujoa0xiO7zdh5w-116" value="&lt;b&gt;7200&lt;/b&gt;" style="rhombus;whiteSpace=wrap;html=1;" parent="1" vertex="1">
          <mxGeometry x="-1410" y="1750" width="80" height="80" as="geometry" />
        </mxCell>
        <mxCell id="gr5SGPujoa0xiO7zdh5w-288" style="edgeStyle=orthogonalEdgeStyle;rounded=0;orthogonalLoop=1;jettySize=auto;html=1;" parent="1" source="gr5SGPujoa0xiO7zdh5w-118" edge="1">
          <mxGeometry relative="1" as="geometry">
            <mxPoint x="-1370" y="2640" as="targetPoint" />
          </mxGeometry>
        </mxCell>
        <mxCell id="gr5SGPujoa0xiO7zdh5w-118" value="AC &amp;lt;== AC&#39;&lt;div&gt;SC &amp;lt;== 0&lt;/div&gt;" style="whiteSpace=wrap;html=1;" parent="1" vertex="1">
          <mxGeometry x="-1430" y="1910" width="120" height="60" as="geometry" />
        </mxCell>
        <mxCell id="gr5SGPujoa0xiO7zdh5w-127" value="1" style="edgeStyle=orthogonalEdgeStyle;rounded=0;orthogonalLoop=1;jettySize=auto;html=1;" parent="1" source="gr5SGPujoa0xiO7zdh5w-122" target="gr5SGPujoa0xiO7zdh5w-126" edge="1">
          <mxGeometry relative="1" as="geometry" />
        </mxCell>
        <mxCell id="gr5SGPujoa0xiO7zdh5w-129" value="" style="edgeStyle=orthogonalEdgeStyle;rounded=0;orthogonalLoop=1;jettySize=auto;html=1;" parent="1" source="gr5SGPujoa0xiO7zdh5w-122" target="gr5SGPujoa0xiO7zdh5w-128" edge="1">
          <mxGeometry relative="1" as="geometry" />
        </mxCell>
        <mxCell id="gr5SGPujoa0xiO7zdh5w-130" value="0" style="edgeLabel;html=1;align=center;verticalAlign=middle;resizable=0;points=[];" parent="gr5SGPujoa0xiO7zdh5w-129" vertex="1" connectable="0">
          <mxGeometry x="-0.1574" y="3" relative="1" as="geometry">
            <mxPoint as="offset" />
          </mxGeometry>
        </mxCell>
        <mxCell id="gr5SGPujoa0xiO7zdh5w-122" value="&lt;b&gt;7100&lt;/b&gt;" style="rhombus;whiteSpace=wrap;html=1;" parent="1" vertex="1">
          <mxGeometry x="-1610" y="1750" width="80" height="80" as="geometry" />
        </mxCell>
        <mxCell id="gr5SGPujoa0xiO7zdh5w-289" style="edgeStyle=orthogonalEdgeStyle;rounded=0;orthogonalLoop=1;jettySize=auto;html=1;" parent="1" source="gr5SGPujoa0xiO7zdh5w-126" edge="1">
          <mxGeometry relative="1" as="geometry">
            <mxPoint x="-1570" y="2640" as="targetPoint" />
          </mxGeometry>
        </mxCell>
        <mxCell id="gr5SGPujoa0xiO7zdh5w-126" value="E &amp;lt;== E&#39;&lt;div&gt;SC &amp;lt;== 0&lt;/div&gt;" style="whiteSpace=wrap;html=1;" parent="1" vertex="1">
          <mxGeometry x="-1630" y="1910" width="120" height="60" as="geometry" />
        </mxCell>
        <mxCell id="gr5SGPujoa0xiO7zdh5w-133" value="1" style="edgeStyle=orthogonalEdgeStyle;rounded=0;orthogonalLoop=1;jettySize=auto;html=1;" parent="1" source="gr5SGPujoa0xiO7zdh5w-128" target="gr5SGPujoa0xiO7zdh5w-132" edge="1">
          <mxGeometry relative="1" as="geometry" />
        </mxCell>
        <mxCell id="gr5SGPujoa0xiO7zdh5w-135" value="" style="edgeStyle=orthogonalEdgeStyle;rounded=0;orthogonalLoop=1;jettySize=auto;html=1;" parent="1" source="gr5SGPujoa0xiO7zdh5w-128" target="gr5SGPujoa0xiO7zdh5w-134" edge="1">
          <mxGeometry relative="1" as="geometry" />
        </mxCell>
        <mxCell id="gr5SGPujoa0xiO7zdh5w-140" value="0" style="edgeLabel;html=1;align=center;verticalAlign=middle;resizable=0;points=[];" parent="gr5SGPujoa0xiO7zdh5w-135" vertex="1" connectable="0">
          <mxGeometry x="-0.0531" y="2" relative="1" as="geometry">
            <mxPoint as="offset" />
          </mxGeometry>
        </mxCell>
        <mxCell id="gr5SGPujoa0xiO7zdh5w-128" value="&lt;b&gt;7080&lt;/b&gt;" style="rhombus;whiteSpace=wrap;html=1;" parent="1" vertex="1">
          <mxGeometry x="-1810" y="1750" width="80" height="80" as="geometry" />
        </mxCell>
        <mxCell id="gr5SGPujoa0xiO7zdh5w-290" style="edgeStyle=orthogonalEdgeStyle;rounded=0;orthogonalLoop=1;jettySize=auto;html=1;" parent="1" source="gr5SGPujoa0xiO7zdh5w-132" edge="1">
          <mxGeometry relative="1" as="geometry">
            <mxPoint x="-1770" y="2640" as="targetPoint" />
          </mxGeometry>
        </mxCell>
        <mxCell id="gr5SGPujoa0xiO7zdh5w-132" value="E &amp;lt;== AC[0]&lt;div&gt;AC &amp;lt;== {E, AC[15...1]}&lt;/div&gt;&lt;div&gt;SC &amp;lt;== 0&lt;/div&gt;" style="whiteSpace=wrap;html=1;" parent="1" vertex="1">
          <mxGeometry x="-1840" y="1910" width="140" height="60" as="geometry" />
        </mxCell>
        <mxCell id="gr5SGPujoa0xiO7zdh5w-139" value="" style="edgeStyle=orthogonalEdgeStyle;rounded=0;orthogonalLoop=1;jettySize=auto;html=1;" parent="1" source="gr5SGPujoa0xiO7zdh5w-134" target="gr5SGPujoa0xiO7zdh5w-138" edge="1">
          <mxGeometry relative="1" as="geometry" />
        </mxCell>
        <mxCell id="gr5SGPujoa0xiO7zdh5w-141" value="1" style="edgeLabel;html=1;align=center;verticalAlign=middle;resizable=0;points=[];" parent="gr5SGPujoa0xiO7zdh5w-139" vertex="1" connectable="0">
          <mxGeometry x="-0.4528" y="-1" relative="1" as="geometry">
            <mxPoint as="offset" />
          </mxGeometry>
        </mxCell>
        <mxCell id="gr5SGPujoa0xiO7zdh5w-143" value="" style="edgeStyle=orthogonalEdgeStyle;rounded=0;orthogonalLoop=1;jettySize=auto;html=1;" parent="1" source="gr5SGPujoa0xiO7zdh5w-134" target="gr5SGPujoa0xiO7zdh5w-142" edge="1">
          <mxGeometry relative="1" as="geometry">
            <Array as="points">
              <mxPoint x="-2070" y="1790" />
              <mxPoint x="-2070" y="1790" />
            </Array>
          </mxGeometry>
        </mxCell>
        <mxCell id="gr5SGPujoa0xiO7zdh5w-149" value="0" style="edgeLabel;html=1;align=center;verticalAlign=middle;resizable=0;points=[];" parent="gr5SGPujoa0xiO7zdh5w-143" vertex="1" connectable="0">
          <mxGeometry x="0.0533" y="-3" relative="1" as="geometry">
            <mxPoint as="offset" />
          </mxGeometry>
        </mxCell>
        <mxCell id="gr5SGPujoa0xiO7zdh5w-134" value="&lt;b&gt;7040&lt;/b&gt;" style="rhombus;whiteSpace=wrap;html=1;" parent="1" vertex="1">
          <mxGeometry x="-2010" y="1750" width="80" height="80" as="geometry" />
        </mxCell>
        <mxCell id="gr5SGPujoa0xiO7zdh5w-291" style="edgeStyle=orthogonalEdgeStyle;rounded=0;orthogonalLoop=1;jettySize=auto;html=1;" parent="1" source="gr5SGPujoa0xiO7zdh5w-138" edge="1">
          <mxGeometry relative="1" as="geometry">
            <mxPoint x="-1969" y="2640" as="targetPoint" />
          </mxGeometry>
        </mxCell>
        <mxCell id="gr5SGPujoa0xiO7zdh5w-138" value="E &amp;lt;== AC[15]&lt;div&gt;AC &amp;lt;== {AC[14...0],&amp;nbsp;&lt;span style=&quot;background-color: initial;&quot;&gt;E&lt;/span&gt;&lt;span style=&quot;background-color: initial;&quot;&gt;}&lt;/span&gt;&lt;/div&gt;&lt;div&gt;SC &amp;lt;== 0&lt;/div&gt;" style="whiteSpace=wrap;html=1;" parent="1" vertex="1">
          <mxGeometry x="-2034" y="1910" width="130" height="60" as="geometry" />
        </mxCell>
        <mxCell id="gr5SGPujoa0xiO7zdh5w-145" value="" style="edgeStyle=orthogonalEdgeStyle;rounded=0;orthogonalLoop=1;jettySize=auto;html=1;" parent="1" source="gr5SGPujoa0xiO7zdh5w-142" target="gr5SGPujoa0xiO7zdh5w-144" edge="1">
          <mxGeometry relative="1" as="geometry" />
        </mxCell>
        <mxCell id="gr5SGPujoa0xiO7zdh5w-150" value="1" style="edgeLabel;html=1;align=center;verticalAlign=middle;resizable=0;points=[];" parent="gr5SGPujoa0xiO7zdh5w-145" vertex="1" connectable="0">
          <mxGeometry x="-0.51" y="1" relative="1" as="geometry">
            <mxPoint as="offset" />
          </mxGeometry>
        </mxCell>
        <mxCell id="gr5SGPujoa0xiO7zdh5w-147" value="" style="edgeStyle=orthogonalEdgeStyle;rounded=0;orthogonalLoop=1;jettySize=auto;html=1;" parent="1" source="gr5SGPujoa0xiO7zdh5w-142" target="gr5SGPujoa0xiO7zdh5w-146" edge="1">
          <mxGeometry relative="1" as="geometry" />
        </mxCell>
        <mxCell id="gr5SGPujoa0xiO7zdh5w-148" value="0" style="edgeLabel;html=1;align=center;verticalAlign=middle;resizable=0;points=[];" parent="gr5SGPujoa0xiO7zdh5w-147" vertex="1" connectable="0">
          <mxGeometry x="-0.1467" y="-2" relative="1" as="geometry">
            <mxPoint as="offset" />
          </mxGeometry>
        </mxCell>
        <mxCell id="gr5SGPujoa0xiO7zdh5w-142" value="&lt;b&gt;7020&lt;/b&gt;" style="rhombus;whiteSpace=wrap;html=1;" parent="1" vertex="1">
          <mxGeometry x="-2210" y="1750" width="80" height="80" as="geometry" />
        </mxCell>
        <mxCell id="gr5SGPujoa0xiO7zdh5w-292" style="edgeStyle=orthogonalEdgeStyle;rounded=0;orthogonalLoop=1;jettySize=auto;html=1;" parent="1" source="gr5SGPujoa0xiO7zdh5w-144" edge="1">
          <mxGeometry relative="1" as="geometry">
            <mxPoint x="-2170" y="2640" as="targetPoint" />
          </mxGeometry>
        </mxCell>
        <mxCell id="gr5SGPujoa0xiO7zdh5w-144" value="AC &amp;lt;== AC + 1&lt;div&gt;SC &amp;lt;== 0&lt;/div&gt;" style="whiteSpace=wrap;html=1;" parent="1" vertex="1">
          <mxGeometry x="-2230" y="1910" width="120" height="60" as="geometry" />
        </mxCell>
        <mxCell id="gr5SGPujoa0xiO7zdh5w-154" value="" style="edgeStyle=orthogonalEdgeStyle;rounded=0;orthogonalLoop=1;jettySize=auto;html=1;" parent="1" source="gr5SGPujoa0xiO7zdh5w-146" target="gr5SGPujoa0xiO7zdh5w-153" edge="1">
          <mxGeometry relative="1" as="geometry" />
        </mxCell>
        <mxCell id="gr5SGPujoa0xiO7zdh5w-162" value="1" style="edgeLabel;html=1;align=center;verticalAlign=middle;resizable=0;points=[];" parent="gr5SGPujoa0xiO7zdh5w-154" vertex="1" connectable="0">
          <mxGeometry x="-0.341" y="2" relative="1" as="geometry">
            <mxPoint as="offset" />
          </mxGeometry>
        </mxCell>
        <mxCell id="gr5SGPujoa0xiO7zdh5w-160" value="" style="edgeStyle=orthogonalEdgeStyle;rounded=0;orthogonalLoop=1;jettySize=auto;html=1;" parent="1" source="gr5SGPujoa0xiO7zdh5w-146" target="gr5SGPujoa0xiO7zdh5w-159" edge="1">
          <mxGeometry relative="1" as="geometry" />
        </mxCell>
        <mxCell id="gr5SGPujoa0xiO7zdh5w-173" value="0" style="edgeLabel;html=1;align=center;verticalAlign=middle;resizable=0;points=[];" parent="gr5SGPujoa0xiO7zdh5w-160" vertex="1" connectable="0">
          <mxGeometry x="-0.1605" y="-1" relative="1" as="geometry">
            <mxPoint as="offset" />
          </mxGeometry>
        </mxCell>
        <mxCell id="gr5SGPujoa0xiO7zdh5w-146" value="&lt;b&gt;7010&lt;/b&gt;" style="rhombus;whiteSpace=wrap;html=1;" parent="1" vertex="1">
          <mxGeometry x="-2410" y="1750" width="80" height="80" as="geometry" />
        </mxCell>
        <mxCell id="gr5SGPujoa0xiO7zdh5w-156" value="" style="edgeStyle=orthogonalEdgeStyle;rounded=0;orthogonalLoop=1;jettySize=auto;html=1;" parent="1" source="gr5SGPujoa0xiO7zdh5w-153" target="gr5SGPujoa0xiO7zdh5w-155" edge="1">
          <mxGeometry relative="1" as="geometry" />
        </mxCell>
        <mxCell id="gr5SGPujoa0xiO7zdh5w-170" value="0" style="edgeLabel;html=1;align=center;verticalAlign=middle;resizable=0;points=[];" parent="gr5SGPujoa0xiO7zdh5w-156" vertex="1" connectable="0">
          <mxGeometry x="-0.3417" relative="1" as="geometry">
            <mxPoint as="offset" />
          </mxGeometry>
        </mxCell>
        <mxCell id="gr5SGPujoa0xiO7zdh5w-304" style="edgeStyle=orthogonalEdgeStyle;rounded=0;orthogonalLoop=1;jettySize=auto;html=1;" parent="1" source="gr5SGPujoa0xiO7zdh5w-153" edge="1">
          <mxGeometry relative="1" as="geometry">
            <mxPoint x="-2280" y="2640" as="targetPoint" />
          </mxGeometry>
        </mxCell>
        <mxCell id="gr5SGPujoa0xiO7zdh5w-306" value="1" style="edgeLabel;html=1;align=center;verticalAlign=middle;resizable=0;points=[];" parent="gr5SGPujoa0xiO7zdh5w-304" vertex="1" connectable="0">
          <mxGeometry x="-0.9174" y="4" relative="1" as="geometry">
            <mxPoint as="offset" />
          </mxGeometry>
        </mxCell>
        <mxCell id="gr5SGPujoa0xiO7zdh5w-153" value="&lt;b&gt;AC[15]&lt;/b&gt;" style="rhombus;whiteSpace=wrap;html=1;" parent="1" vertex="1">
          <mxGeometry x="-2410" y="1900" width="80" height="80" as="geometry" />
        </mxCell>
        <mxCell id="gr5SGPujoa0xiO7zdh5w-293" style="edgeStyle=orthogonalEdgeStyle;rounded=0;orthogonalLoop=1;jettySize=auto;html=1;" parent="1" source="gr5SGPujoa0xiO7zdh5w-155" edge="1">
          <mxGeometry relative="1" as="geometry">
            <mxPoint x="-2370" y="2640" as="targetPoint" />
          </mxGeometry>
        </mxCell>
        <mxCell id="gr5SGPujoa0xiO7zdh5w-155" value="PC &amp;lt;== PC + 1&lt;div&gt;SC &amp;lt;== 0&lt;/div&gt;" style="whiteSpace=wrap;html=1;" parent="1" vertex="1">
          <mxGeometry x="-2430" y="2030" width="120" height="60" as="geometry" />
        </mxCell>
        <mxCell id="gr5SGPujoa0xiO7zdh5w-171" style="edgeStyle=orthogonalEdgeStyle;rounded=0;orthogonalLoop=1;jettySize=auto;html=1;entryX=0.5;entryY=0;entryDx=0;entryDy=0;" parent="1" source="gr5SGPujoa0xiO7zdh5w-159" target="gr5SGPujoa0xiO7zdh5w-166" edge="1">
          <mxGeometry relative="1" as="geometry" />
        </mxCell>
        <mxCell id="gr5SGPujoa0xiO7zdh5w-172" value="1" style="edgeLabel;html=1;align=center;verticalAlign=middle;resizable=0;points=[];" parent="gr5SGPujoa0xiO7zdh5w-171" vertex="1" connectable="0">
          <mxGeometry x="-0.4047" y="-2" relative="1" as="geometry">
            <mxPoint as="offset" />
          </mxGeometry>
        </mxCell>
        <mxCell id="gr5SGPujoa0xiO7zdh5w-175" value="" style="edgeStyle=orthogonalEdgeStyle;rounded=0;orthogonalLoop=1;jettySize=auto;html=1;" parent="1" source="gr5SGPujoa0xiO7zdh5w-159" target="gr5SGPujoa0xiO7zdh5w-174" edge="1">
          <mxGeometry relative="1" as="geometry" />
        </mxCell>
        <mxCell id="gr5SGPujoa0xiO7zdh5w-183" value="0" style="edgeLabel;html=1;align=center;verticalAlign=middle;resizable=0;points=[];" parent="gr5SGPujoa0xiO7zdh5w-175" vertex="1" connectable="0">
          <mxGeometry x="-0.0626" y="1" relative="1" as="geometry">
            <mxPoint as="offset" />
          </mxGeometry>
        </mxCell>
        <mxCell id="gr5SGPujoa0xiO7zdh5w-159" value="&lt;b&gt;7008&lt;/b&gt;" style="rhombus;whiteSpace=wrap;html=1;" parent="1" vertex="1">
          <mxGeometry x="-2610" y="1750" width="80" height="80" as="geometry" />
        </mxCell>
        <mxCell id="gr5SGPujoa0xiO7zdh5w-164" value="" style="edgeStyle=orthogonalEdgeStyle;rounded=0;orthogonalLoop=1;jettySize=auto;html=1;" parent="1" source="gr5SGPujoa0xiO7zdh5w-166" target="gr5SGPujoa0xiO7zdh5w-167" edge="1">
          <mxGeometry relative="1" as="geometry" />
        </mxCell>
        <mxCell id="gr5SGPujoa0xiO7zdh5w-168" value="" style="edgeStyle=orthogonalEdgeStyle;rounded=0;orthogonalLoop=1;jettySize=auto;html=1;" parent="1" source="gr5SGPujoa0xiO7zdh5w-166" target="gr5SGPujoa0xiO7zdh5w-167" edge="1">
          <mxGeometry relative="1" as="geometry" />
        </mxCell>
        <mxCell id="gr5SGPujoa0xiO7zdh5w-169" value="1" style="edgeLabel;html=1;align=center;verticalAlign=middle;resizable=0;points=[];" parent="gr5SGPujoa0xiO7zdh5w-168" vertex="1" connectable="0">
          <mxGeometry x="-0.3584" y="1" relative="1" as="geometry">
            <mxPoint as="offset" />
          </mxGeometry>
        </mxCell>
        <mxCell id="gr5SGPujoa0xiO7zdh5w-300" style="edgeStyle=orthogonalEdgeStyle;rounded=0;orthogonalLoop=1;jettySize=auto;html=1;" parent="1" source="gr5SGPujoa0xiO7zdh5w-166" edge="1">
          <mxGeometry relative="1" as="geometry">
            <mxPoint x="-2480" y="2640" as="targetPoint" />
          </mxGeometry>
        </mxCell>
        <mxCell id="gr5SGPujoa0xiO7zdh5w-303" value="0" style="edgeLabel;html=1;align=center;verticalAlign=middle;resizable=0;points=[];" parent="gr5SGPujoa0xiO7zdh5w-300" vertex="1" connectable="0">
          <mxGeometry x="-0.9245" y="3" relative="1" as="geometry">
            <mxPoint as="offset" />
          </mxGeometry>
        </mxCell>
        <mxCell id="gr5SGPujoa0xiO7zdh5w-166" value="&lt;b&gt;AC[15]&lt;/b&gt;" style="rhombus;whiteSpace=wrap;html=1;" parent="1" vertex="1">
          <mxGeometry x="-2610" y="1900" width="80" height="80" as="geometry" />
        </mxCell>
        <mxCell id="gr5SGPujoa0xiO7zdh5w-294" style="edgeStyle=orthogonalEdgeStyle;rounded=0;orthogonalLoop=1;jettySize=auto;html=1;" parent="1" source="gr5SGPujoa0xiO7zdh5w-167" edge="1">
          <mxGeometry relative="1" as="geometry">
            <mxPoint x="-2570" y="2640" as="targetPoint" />
          </mxGeometry>
        </mxCell>
        <mxCell id="gr5SGPujoa0xiO7zdh5w-167" value="PC &amp;lt;== PC + 1&lt;div&gt;SC &amp;lt;== 0&lt;/div&gt;" style="whiteSpace=wrap;html=1;" parent="1" vertex="1">
          <mxGeometry x="-2630" y="2030" width="120" height="60" as="geometry" />
        </mxCell>
        <mxCell id="gr5SGPujoa0xiO7zdh5w-182" style="edgeStyle=orthogonalEdgeStyle;rounded=0;orthogonalLoop=1;jettySize=auto;html=1;entryX=0.5;entryY=0;entryDx=0;entryDy=0;" parent="1" source="gr5SGPujoa0xiO7zdh5w-174" target="gr5SGPujoa0xiO7zdh5w-180" edge="1">
          <mxGeometry relative="1" as="geometry" />
        </mxCell>
        <mxCell id="gr5SGPujoa0xiO7zdh5w-184" value="1" style="edgeLabel;html=1;align=center;verticalAlign=middle;resizable=0;points=[];" parent="gr5SGPujoa0xiO7zdh5w-182" vertex="1" connectable="0">
          <mxGeometry x="-0.2402" y="1" relative="1" as="geometry">
            <mxPoint as="offset" />
          </mxGeometry>
        </mxCell>
        <mxCell id="gr5SGPujoa0xiO7zdh5w-187" value="" style="edgeStyle=orthogonalEdgeStyle;rounded=0;orthogonalLoop=1;jettySize=auto;html=1;" parent="1" source="gr5SGPujoa0xiO7zdh5w-174" target="gr5SGPujoa0xiO7zdh5w-186" edge="1">
          <mxGeometry relative="1" as="geometry" />
        </mxCell>
        <mxCell id="gr5SGPujoa0xiO7zdh5w-188" value="0" style="edgeLabel;html=1;align=center;verticalAlign=middle;resizable=0;points=[];" parent="gr5SGPujoa0xiO7zdh5w-187" vertex="1" connectable="0">
          <mxGeometry x="-0.0536" relative="1" as="geometry">
            <mxPoint as="offset" />
          </mxGeometry>
        </mxCell>
        <mxCell id="gr5SGPujoa0xiO7zdh5w-174" value="&lt;b&gt;7004&lt;/b&gt;" style="rhombus;whiteSpace=wrap;html=1;" parent="1" vertex="1">
          <mxGeometry x="-2810" y="1750" width="80" height="80" as="geometry" />
        </mxCell>
        <mxCell id="gr5SGPujoa0xiO7zdh5w-178" value="" style="edgeStyle=orthogonalEdgeStyle;rounded=0;orthogonalLoop=1;jettySize=auto;html=1;" parent="1" source="gr5SGPujoa0xiO7zdh5w-180" target="gr5SGPujoa0xiO7zdh5w-181" edge="1">
          <mxGeometry relative="1" as="geometry" />
        </mxCell>
        <mxCell id="gr5SGPujoa0xiO7zdh5w-185" value="0" style="edgeLabel;html=1;align=center;verticalAlign=middle;resizable=0;points=[];" parent="gr5SGPujoa0xiO7zdh5w-178" vertex="1" connectable="0">
          <mxGeometry x="-0.2714" y="1" relative="1" as="geometry">
            <mxPoint as="offset" />
          </mxGeometry>
        </mxCell>
        <mxCell id="gr5SGPujoa0xiO7zdh5w-299" style="edgeStyle=orthogonalEdgeStyle;rounded=0;orthogonalLoop=1;jettySize=auto;html=1;" parent="1" source="gr5SGPujoa0xiO7zdh5w-180" edge="1">
          <mxGeometry relative="1" as="geometry">
            <mxPoint x="-2680" y="2640" as="targetPoint" />
          </mxGeometry>
        </mxCell>
        <mxCell id="gr5SGPujoa0xiO7zdh5w-302" value="1" style="edgeLabel;html=1;align=center;verticalAlign=middle;resizable=0;points=[];" parent="gr5SGPujoa0xiO7zdh5w-299" vertex="1" connectable="0">
          <mxGeometry x="-0.9316" y="-3" relative="1" as="geometry">
            <mxPoint as="offset" />
          </mxGeometry>
        </mxCell>
        <mxCell id="gr5SGPujoa0xiO7zdh5w-180" value="&lt;b&gt;AC&lt;/b&gt;" style="rhombus;whiteSpace=wrap;html=1;" parent="1" vertex="1">
          <mxGeometry x="-2810" y="1900" width="80" height="80" as="geometry" />
        </mxCell>
        <mxCell id="gr5SGPujoa0xiO7zdh5w-295" style="edgeStyle=orthogonalEdgeStyle;rounded=0;orthogonalLoop=1;jettySize=auto;html=1;" parent="1" source="gr5SGPujoa0xiO7zdh5w-181" edge="1">
          <mxGeometry relative="1" as="geometry">
            <mxPoint x="-2770" y="2640" as="targetPoint" />
          </mxGeometry>
        </mxCell>
        <mxCell id="gr5SGPujoa0xiO7zdh5w-181" value="PC &amp;lt;== PC + 1&lt;div&gt;SC &amp;lt;== 0&lt;/div&gt;" style="whiteSpace=wrap;html=1;" parent="1" vertex="1">
          <mxGeometry x="-2830" y="2030" width="120" height="60" as="geometry" />
        </mxCell>
        <mxCell id="gr5SGPujoa0xiO7zdh5w-190" value="" style="edgeStyle=orthogonalEdgeStyle;rounded=0;orthogonalLoop=1;jettySize=auto;html=1;" parent="1" source="gr5SGPujoa0xiO7zdh5w-186" target="gr5SGPujoa0xiO7zdh5w-189" edge="1">
          <mxGeometry relative="1" as="geometry" />
        </mxCell>
        <mxCell id="gr5SGPujoa0xiO7zdh5w-194" value="1" style="edgeLabel;html=1;align=center;verticalAlign=middle;resizable=0;points=[];" parent="gr5SGPujoa0xiO7zdh5w-190" vertex="1" connectable="0">
          <mxGeometry x="-0.132" y="1" relative="1" as="geometry">
            <mxPoint as="offset" />
          </mxGeometry>
        </mxCell>
        <mxCell id="gr5SGPujoa0xiO7zdh5w-196" value="" style="edgeStyle=orthogonalEdgeStyle;rounded=0;orthogonalLoop=1;jettySize=auto;html=1;" parent="1" source="gr5SGPujoa0xiO7zdh5w-186" target="gr5SGPujoa0xiO7zdh5w-195" edge="1">
          <mxGeometry relative="1" as="geometry" />
        </mxCell>
        <mxCell id="gr5SGPujoa0xiO7zdh5w-186" value="&lt;b&gt;7002&lt;/b&gt;" style="rhombus;whiteSpace=wrap;html=1;" parent="1" vertex="1">
          <mxGeometry x="-3010" y="1750" width="80" height="80" as="geometry" />
        </mxCell>
        <mxCell id="gr5SGPujoa0xiO7zdh5w-192" value="" style="edgeStyle=orthogonalEdgeStyle;rounded=0;orthogonalLoop=1;jettySize=auto;html=1;" parent="1" source="gr5SGPujoa0xiO7zdh5w-189" target="gr5SGPujoa0xiO7zdh5w-191" edge="1">
          <mxGeometry relative="1" as="geometry" />
        </mxCell>
        <mxCell id="gr5SGPujoa0xiO7zdh5w-193" value="0" style="edgeLabel;html=1;align=center;verticalAlign=middle;resizable=0;points=[];" parent="gr5SGPujoa0xiO7zdh5w-192" vertex="1" connectable="0">
          <mxGeometry x="-0.1632" y="1" relative="1" as="geometry">
            <mxPoint as="offset" />
          </mxGeometry>
        </mxCell>
        <mxCell id="gr5SGPujoa0xiO7zdh5w-298" style="edgeStyle=orthogonalEdgeStyle;rounded=0;orthogonalLoop=1;jettySize=auto;html=1;" parent="1" source="gr5SGPujoa0xiO7zdh5w-189" edge="1">
          <mxGeometry relative="1" as="geometry">
            <mxPoint x="-2870" y="2640" as="targetPoint" />
          </mxGeometry>
        </mxCell>
        <mxCell id="gr5SGPujoa0xiO7zdh5w-301" value="1" style="edgeLabel;html=1;align=center;verticalAlign=middle;resizable=0;points=[];" parent="gr5SGPujoa0xiO7zdh5w-298" vertex="1" connectable="0">
          <mxGeometry x="-0.9185" relative="1" as="geometry">
            <mxPoint as="offset" />
          </mxGeometry>
        </mxCell>
        <mxCell id="gr5SGPujoa0xiO7zdh5w-189" value="&lt;b&gt;E&lt;/b&gt;" style="rhombus;whiteSpace=wrap;html=1;" parent="1" vertex="1">
          <mxGeometry x="-3010" y="1900" width="80" height="80" as="geometry" />
        </mxCell>
        <mxCell id="gr5SGPujoa0xiO7zdh5w-296" style="edgeStyle=orthogonalEdgeStyle;rounded=0;orthogonalLoop=1;jettySize=auto;html=1;" parent="1" source="gr5SGPujoa0xiO7zdh5w-191" edge="1">
          <mxGeometry relative="1" as="geometry">
            <mxPoint x="-2970" y="2640" as="targetPoint" />
          </mxGeometry>
        </mxCell>
        <mxCell id="gr5SGPujoa0xiO7zdh5w-191" value="PC &amp;lt;== PC + 1&lt;div&gt;SC &amp;lt;== 0&lt;/div&gt;" style="whiteSpace=wrap;html=1;" parent="1" vertex="1">
          <mxGeometry x="-3030" y="2030" width="120" height="60" as="geometry" />
        </mxCell>
        <mxCell id="gr5SGPujoa0xiO7zdh5w-200" value="" style="edgeStyle=orthogonalEdgeStyle;rounded=0;orthogonalLoop=1;jettySize=auto;html=1;" parent="1" source="gr5SGPujoa0xiO7zdh5w-195" target="gr5SGPujoa0xiO7zdh5w-199" edge="1">
          <mxGeometry relative="1" as="geometry" />
        </mxCell>
        <mxCell id="gr5SGPujoa0xiO7zdh5w-308" value="1" style="edgeLabel;html=1;align=center;verticalAlign=middle;resizable=0;points=[];" parent="gr5SGPujoa0xiO7zdh5w-200" vertex="1" connectable="0">
          <mxGeometry x="-0.15" y="-2" relative="1" as="geometry">
            <mxPoint y="-1" as="offset" />
          </mxGeometry>
        </mxCell>
        <mxCell id="gr5SGPujoa0xiO7zdh5w-307" style="edgeStyle=orthogonalEdgeStyle;rounded=0;orthogonalLoop=1;jettySize=auto;html=1;" parent="1" source="gr5SGPujoa0xiO7zdh5w-195" edge="1">
          <mxGeometry relative="1" as="geometry">
            <mxPoint x="-3250" y="2641.3333333333335" as="targetPoint" />
          </mxGeometry>
        </mxCell>
        <mxCell id="gr5SGPujoa0xiO7zdh5w-195" value="&lt;b&gt;7001&lt;/b&gt;" style="rhombus;whiteSpace=wrap;html=1;" parent="1" vertex="1">
          <mxGeometry x="-3210" y="1750" width="80" height="80" as="geometry" />
        </mxCell>
        <mxCell id="gr5SGPujoa0xiO7zdh5w-297" style="edgeStyle=orthogonalEdgeStyle;rounded=0;orthogonalLoop=1;jettySize=auto;html=1;" parent="1" source="gr5SGPujoa0xiO7zdh5w-199" edge="1">
          <mxGeometry relative="1" as="geometry">
            <mxPoint x="-3170" y="2640" as="targetPoint" />
          </mxGeometry>
        </mxCell>
        <mxCell id="gr5SGPujoa0xiO7zdh5w-199" value="S &amp;lt;== 0&lt;div&gt;SC &amp;lt;== 0&lt;/div&gt;" style="whiteSpace=wrap;html=1;" parent="1" vertex="1">
          <mxGeometry x="-3230" y="1910" width="120" height="60" as="geometry" />
        </mxCell>
        <mxCell id="gr5SGPujoa0xiO7zdh5w-204" value="" style="edgeStyle=orthogonalEdgeStyle;rounded=0;orthogonalLoop=1;jettySize=auto;html=1;" parent="1" source="gr5SGPujoa0xiO7zdh5w-201" target="gr5SGPujoa0xiO7zdh5w-203" edge="1">
          <mxGeometry relative="1" as="geometry" />
        </mxCell>
        <mxCell id="gr5SGPujoa0xiO7zdh5w-205" value="0" style="edgeLabel;html=1;align=center;verticalAlign=middle;resizable=0;points=[];" parent="gr5SGPujoa0xiO7zdh5w-204" vertex="1" connectable="0">
          <mxGeometry x="-0.5608" relative="1" as="geometry">
            <mxPoint as="offset" />
          </mxGeometry>
        </mxCell>
        <mxCell id="gr5SGPujoa0xiO7zdh5w-207" value="" style="edgeStyle=orthogonalEdgeStyle;rounded=0;orthogonalLoop=1;jettySize=auto;html=1;" parent="1" source="gr5SGPujoa0xiO7zdh5w-201" target="gr5SGPujoa0xiO7zdh5w-206" edge="1">
          <mxGeometry relative="1" as="geometry" />
        </mxCell>
        <mxCell id="gr5SGPujoa0xiO7zdh5w-201" value="&lt;b&gt;I&lt;/b&gt;" style="rhombus;whiteSpace=wrap;html=1;" parent="1" vertex="1">
          <mxGeometry x="1050" y="1560" width="80" height="80" as="geometry" />
        </mxCell>
        <mxCell id="gr5SGPujoa0xiO7zdh5w-209" style="edgeStyle=orthogonalEdgeStyle;rounded=0;orthogonalLoop=1;jettySize=auto;html=1;entryX=0.5;entryY=0;entryDx=0;entryDy=0;" parent="1" source="gr5SGPujoa0xiO7zdh5w-203" target="gr5SGPujoa0xiO7zdh5w-208" edge="1">
          <mxGeometry relative="1" as="geometry">
            <Array as="points">
              <mxPoint x="910" y="1900" />
            </Array>
          </mxGeometry>
        </mxCell>
        <mxCell id="gr5SGPujoa0xiO7zdh5w-203" value="WAIT" style="whiteSpace=wrap;html=1;" parent="1" vertex="1">
          <mxGeometry x="850" y="1760" width="120" height="60" as="geometry" />
        </mxCell>
        <mxCell id="gr5SGPujoa0xiO7zdh5w-210" style="edgeStyle=orthogonalEdgeStyle;rounded=0;orthogonalLoop=1;jettySize=auto;html=1;entryX=0.5;entryY=0;entryDx=0;entryDy=0;" parent="1" source="gr5SGPujoa0xiO7zdh5w-206" target="gr5SGPujoa0xiO7zdh5w-208" edge="1">
          <mxGeometry relative="1" as="geometry">
            <Array as="points">
              <mxPoint x="1260" y="1900" />
            </Array>
          </mxGeometry>
        </mxCell>
        <mxCell id="gr5SGPujoa0xiO7zdh5w-206" value="AR &amp;lt;== M[AR]" style="whiteSpace=wrap;html=1;" parent="1" vertex="1">
          <mxGeometry x="1200" y="1760" width="120" height="60" as="geometry" />
        </mxCell>
        <mxCell id="gr5SGPujoa0xiO7zdh5w-212" value="" style="edgeStyle=orthogonalEdgeStyle;rounded=0;orthogonalLoop=1;jettySize=auto;html=1;" parent="1" source="gr5SGPujoa0xiO7zdh5w-208" target="gr5SGPujoa0xiO7zdh5w-211" edge="1">
          <mxGeometry relative="1" as="geometry" />
        </mxCell>
        <mxCell id="gr5SGPujoa0xiO7zdh5w-217" value="1" style="edgeLabel;html=1;align=center;verticalAlign=middle;resizable=0;points=[];" parent="gr5SGPujoa0xiO7zdh5w-212" vertex="1" connectable="0">
          <mxGeometry x="-0.2963" y="1" relative="1" as="geometry">
            <mxPoint as="offset" />
          </mxGeometry>
        </mxCell>
        <mxCell id="gr5SGPujoa0xiO7zdh5w-216" value="" style="edgeStyle=orthogonalEdgeStyle;rounded=0;orthogonalLoop=1;jettySize=auto;html=1;" parent="1" source="gr5SGPujoa0xiO7zdh5w-208" target="gr5SGPujoa0xiO7zdh5w-215" edge="1">
          <mxGeometry relative="1" as="geometry" />
        </mxCell>
        <mxCell id="gr5SGPujoa0xiO7zdh5w-218" value="0" style="edgeLabel;html=1;align=center;verticalAlign=middle;resizable=0;points=[];" parent="gr5SGPujoa0xiO7zdh5w-216" vertex="1" connectable="0">
          <mxGeometry x="0.045" y="-1" relative="1" as="geometry">
            <mxPoint as="offset" />
          </mxGeometry>
        </mxCell>
        <mxCell id="gr5SGPujoa0xiO7zdh5w-208" value="&lt;b&gt;D0&lt;/b&gt;" style="rhombus;whiteSpace=wrap;html=1;" parent="1" vertex="1">
          <mxGeometry x="1050" y="1900" width="80" height="80" as="geometry" />
        </mxCell>
        <mxCell id="gr5SGPujoa0xiO7zdh5w-214" value="" style="edgeStyle=orthogonalEdgeStyle;rounded=0;orthogonalLoop=1;jettySize=auto;html=1;" parent="1" source="gr5SGPujoa0xiO7zdh5w-211" target="gr5SGPujoa0xiO7zdh5w-213" edge="1">
          <mxGeometry relative="1" as="geometry" />
        </mxCell>
        <mxCell id="gr5SGPujoa0xiO7zdh5w-211" value="DR &amp;lt;== M[AR]" style="whiteSpace=wrap;html=1;" parent="1" vertex="1">
          <mxGeometry x="1030" y="2070" width="120" height="60" as="geometry" />
        </mxCell>
        <mxCell id="gr5SGPujoa0xiO7zdh5w-278" style="edgeStyle=orthogonalEdgeStyle;rounded=0;orthogonalLoop=1;jettySize=auto;html=1;" parent="1" source="gr5SGPujoa0xiO7zdh5w-213" edge="1">
          <mxGeometry relative="1" as="geometry">
            <mxPoint x="1090" y="2640" as="targetPoint" />
          </mxGeometry>
        </mxCell>
        <mxCell id="gr5SGPujoa0xiO7zdh5w-213" value="AC &amp;lt;== AC &amp;amp; DR&lt;div&gt;SC &amp;lt;== 0&lt;/div&gt;" style="whiteSpace=wrap;html=1;" parent="1" vertex="1">
          <mxGeometry x="1030" y="2210" width="120" height="60" as="geometry" />
        </mxCell>
        <mxCell id="gr5SGPujoa0xiO7zdh5w-220" value="" style="edgeStyle=orthogonalEdgeStyle;rounded=0;orthogonalLoop=1;jettySize=auto;html=1;" parent="1" source="gr5SGPujoa0xiO7zdh5w-215" target="gr5SGPujoa0xiO7zdh5w-219" edge="1">
          <mxGeometry relative="1" as="geometry" />
        </mxCell>
        <mxCell id="gr5SGPujoa0xiO7zdh5w-221" value="1" style="edgeLabel;html=1;align=center;verticalAlign=middle;resizable=0;points=[];" parent="gr5SGPujoa0xiO7zdh5w-220" vertex="1" connectable="0">
          <mxGeometry x="-0.1481" y="3" relative="1" as="geometry">
            <mxPoint as="offset" />
          </mxGeometry>
        </mxCell>
        <mxCell id="gr5SGPujoa0xiO7zdh5w-225" value="" style="edgeStyle=orthogonalEdgeStyle;rounded=0;orthogonalLoop=1;jettySize=auto;html=1;" parent="1" source="gr5SGPujoa0xiO7zdh5w-215" target="gr5SGPujoa0xiO7zdh5w-224" edge="1">
          <mxGeometry relative="1" as="geometry" />
        </mxCell>
        <mxCell id="gr5SGPujoa0xiO7zdh5w-226" value="0" style="edgeLabel;html=1;align=center;verticalAlign=middle;resizable=0;points=[];" parent="gr5SGPujoa0xiO7zdh5w-225" vertex="1" connectable="0">
          <mxGeometry x="0.1821" y="-2" relative="1" as="geometry">
            <mxPoint as="offset" />
          </mxGeometry>
        </mxCell>
        <mxCell id="gr5SGPujoa0xiO7zdh5w-215" value="&lt;b&gt;D1&lt;/b&gt;" style="rhombus;whiteSpace=wrap;html=1;" parent="1" vertex="1">
          <mxGeometry x="1241" y="1900" width="80" height="80" as="geometry" />
        </mxCell>
        <mxCell id="gr5SGPujoa0xiO7zdh5w-223" value="" style="edgeStyle=orthogonalEdgeStyle;rounded=0;orthogonalLoop=1;jettySize=auto;html=1;" parent="1" source="gr5SGPujoa0xiO7zdh5w-219" target="gr5SGPujoa0xiO7zdh5w-222" edge="1">
          <mxGeometry relative="1" as="geometry" />
        </mxCell>
        <mxCell id="gr5SGPujoa0xiO7zdh5w-219" value="DR &amp;lt;== M[AR]" style="whiteSpace=wrap;html=1;" parent="1" vertex="1">
          <mxGeometry x="1221" y="2070" width="120" height="60" as="geometry" />
        </mxCell>
        <mxCell id="gr5SGPujoa0xiO7zdh5w-277" style="edgeStyle=orthogonalEdgeStyle;rounded=0;orthogonalLoop=1;jettySize=auto;html=1;" parent="1" source="gr5SGPujoa0xiO7zdh5w-222" edge="1">
          <mxGeometry relative="1" as="geometry">
            <mxPoint x="1281" y="2640" as="targetPoint" />
          </mxGeometry>
        </mxCell>
        <mxCell id="gr5SGPujoa0xiO7zdh5w-222" value="AC &amp;lt;== AC + DR&lt;div&gt;SC &amp;lt;== 0&lt;/div&gt;" style="whiteSpace=wrap;html=1;" parent="1" vertex="1">
          <mxGeometry x="1221" y="2210" width="120" height="60" as="geometry" />
        </mxCell>
        <mxCell id="gr5SGPujoa0xiO7zdh5w-228" value="" style="edgeStyle=orthogonalEdgeStyle;rounded=0;orthogonalLoop=1;jettySize=auto;html=1;" parent="1" source="gr5SGPujoa0xiO7zdh5w-224" target="gr5SGPujoa0xiO7zdh5w-227" edge="1">
          <mxGeometry relative="1" as="geometry" />
        </mxCell>
        <mxCell id="gr5SGPujoa0xiO7zdh5w-239" value="1" style="edgeLabel;html=1;align=center;verticalAlign=middle;resizable=0;points=[];" parent="gr5SGPujoa0xiO7zdh5w-228" vertex="1" connectable="0">
          <mxGeometry x="-0.463" y="3" relative="1" as="geometry">
            <mxPoint as="offset" />
          </mxGeometry>
        </mxCell>
        <mxCell id="gr5SGPujoa0xiO7zdh5w-232" value="" style="edgeStyle=orthogonalEdgeStyle;rounded=0;orthogonalLoop=1;jettySize=auto;html=1;" parent="1" source="gr5SGPujoa0xiO7zdh5w-224" target="gr5SGPujoa0xiO7zdh5w-231" edge="1">
          <mxGeometry relative="1" as="geometry" />
        </mxCell>
        <mxCell id="gr5SGPujoa0xiO7zdh5w-240" value="0" style="edgeLabel;html=1;align=center;verticalAlign=middle;resizable=0;points=[];" parent="gr5SGPujoa0xiO7zdh5w-232" vertex="1" connectable="0">
          <mxGeometry x="-0.1444" y="3" relative="1" as="geometry">
            <mxPoint as="offset" />
          </mxGeometry>
        </mxCell>
        <mxCell id="gr5SGPujoa0xiO7zdh5w-224" value="&lt;b&gt;D2&lt;/b&gt;" style="rhombus;whiteSpace=wrap;html=1;" parent="1" vertex="1">
          <mxGeometry x="1440" y="1900" width="80" height="80" as="geometry" />
        </mxCell>
        <mxCell id="gr5SGPujoa0xiO7zdh5w-230" value="" style="edgeStyle=orthogonalEdgeStyle;rounded=0;orthogonalLoop=1;jettySize=auto;html=1;" parent="1" source="gr5SGPujoa0xiO7zdh5w-227" target="gr5SGPujoa0xiO7zdh5w-229" edge="1">
          <mxGeometry relative="1" as="geometry" />
        </mxCell>
        <mxCell id="gr5SGPujoa0xiO7zdh5w-227" value="DR &amp;lt;== M[AR]" style="whiteSpace=wrap;html=1;" parent="1" vertex="1">
          <mxGeometry x="1420" y="2070" width="120" height="60" as="geometry" />
        </mxCell>
        <mxCell id="gr5SGPujoa0xiO7zdh5w-276" style="edgeStyle=orthogonalEdgeStyle;rounded=0;orthogonalLoop=1;jettySize=auto;html=1;" parent="1" source="gr5SGPujoa0xiO7zdh5w-229" edge="1">
          <mxGeometry relative="1" as="geometry">
            <mxPoint x="1480" y="2640" as="targetPoint" />
          </mxGeometry>
        </mxCell>
        <mxCell id="gr5SGPujoa0xiO7zdh5w-229" value="AC &amp;lt;== DR&lt;div&gt;SC &amp;lt;== 0&lt;/div&gt;" style="whiteSpace=wrap;html=1;" parent="1" vertex="1">
          <mxGeometry x="1420" y="2210" width="120" height="60" as="geometry" />
        </mxCell>
        <mxCell id="gr5SGPujoa0xiO7zdh5w-234" value="" style="edgeStyle=orthogonalEdgeStyle;rounded=0;orthogonalLoop=1;jettySize=auto;html=1;" parent="1" source="gr5SGPujoa0xiO7zdh5w-231" target="gr5SGPujoa0xiO7zdh5w-233" edge="1">
          <mxGeometry relative="1" as="geometry" />
        </mxCell>
        <mxCell id="gr5SGPujoa0xiO7zdh5w-241" value="1" style="edgeLabel;html=1;align=center;verticalAlign=middle;resizable=0;points=[];" parent="gr5SGPujoa0xiO7zdh5w-234" vertex="1" connectable="0">
          <mxGeometry x="-0.5185" relative="1" as="geometry">
            <mxPoint as="offset" />
          </mxGeometry>
        </mxCell>
        <mxCell id="gr5SGPujoa0xiO7zdh5w-236" value="" style="edgeStyle=orthogonalEdgeStyle;rounded=0;orthogonalLoop=1;jettySize=auto;html=1;" parent="1" source="gr5SGPujoa0xiO7zdh5w-231" target="gr5SGPujoa0xiO7zdh5w-235" edge="1">
          <mxGeometry relative="1" as="geometry" />
        </mxCell>
        <mxCell id="gr5SGPujoa0xiO7zdh5w-242" value="0" style="edgeLabel;html=1;align=center;verticalAlign=middle;resizable=0;points=[];" parent="gr5SGPujoa0xiO7zdh5w-236" vertex="1" connectable="0">
          <mxGeometry x="-0.0611" y="1" relative="1" as="geometry">
            <mxPoint as="offset" />
          </mxGeometry>
        </mxCell>
        <mxCell id="gr5SGPujoa0xiO7zdh5w-231" value="&lt;b&gt;D3&lt;/b&gt;" style="rhombus;whiteSpace=wrap;html=1;" parent="1" vertex="1">
          <mxGeometry x="1640" y="1900" width="80" height="80" as="geometry" />
        </mxCell>
        <mxCell id="gr5SGPujoa0xiO7zdh5w-275" style="edgeStyle=orthogonalEdgeStyle;rounded=0;orthogonalLoop=1;jettySize=auto;html=1;" parent="1" source="gr5SGPujoa0xiO7zdh5w-233" edge="1">
          <mxGeometry relative="1" as="geometry">
            <mxPoint x="1680" y="2640" as="targetPoint" />
          </mxGeometry>
        </mxCell>
        <mxCell id="gr5SGPujoa0xiO7zdh5w-233" value="M[AR] &amp;lt;== AC&lt;div&gt;SC &amp;lt;== 0&lt;/div&gt;" style="whiteSpace=wrap;html=1;" parent="1" vertex="1">
          <mxGeometry x="1620" y="2070" width="120" height="60" as="geometry" />
        </mxCell>
        <mxCell id="gr5SGPujoa0xiO7zdh5w-238" value="" style="edgeStyle=orthogonalEdgeStyle;rounded=0;orthogonalLoop=1;jettySize=auto;html=1;" parent="1" source="gr5SGPujoa0xiO7zdh5w-235" target="gr5SGPujoa0xiO7zdh5w-237" edge="1">
          <mxGeometry relative="1" as="geometry" />
        </mxCell>
        <mxCell id="gr5SGPujoa0xiO7zdh5w-243" value="1" style="edgeLabel;html=1;align=center;verticalAlign=middle;resizable=0;points=[];" parent="gr5SGPujoa0xiO7zdh5w-238" vertex="1" connectable="0">
          <mxGeometry x="-0.4815" y="1" relative="1" as="geometry">
            <mxPoint as="offset" />
          </mxGeometry>
        </mxCell>
        <mxCell id="gr5SGPujoa0xiO7zdh5w-245" value="" style="edgeStyle=orthogonalEdgeStyle;rounded=0;orthogonalLoop=1;jettySize=auto;html=1;" parent="1" source="gr5SGPujoa0xiO7zdh5w-235" target="gr5SGPujoa0xiO7zdh5w-244" edge="1">
          <mxGeometry relative="1" as="geometry" />
        </mxCell>
        <mxCell id="gr5SGPujoa0xiO7zdh5w-246" value="0" style="edgeLabel;html=1;align=center;verticalAlign=middle;resizable=0;points=[];" parent="gr5SGPujoa0xiO7zdh5w-245" vertex="1" connectable="0">
          <mxGeometry x="0.0361" relative="1" as="geometry">
            <mxPoint as="offset" />
          </mxGeometry>
        </mxCell>
        <mxCell id="gr5SGPujoa0xiO7zdh5w-235" value="&lt;b&gt;D4&lt;/b&gt;" style="rhombus;whiteSpace=wrap;html=1;" parent="1" vertex="1">
          <mxGeometry x="1840" y="1900" width="80" height="80" as="geometry" />
        </mxCell>
        <mxCell id="gr5SGPujoa0xiO7zdh5w-274" style="edgeStyle=orthogonalEdgeStyle;rounded=0;orthogonalLoop=1;jettySize=auto;html=1;" parent="1" source="gr5SGPujoa0xiO7zdh5w-237" edge="1">
          <mxGeometry relative="1" as="geometry">
            <mxPoint x="1880" y="2640" as="targetPoint" />
          </mxGeometry>
        </mxCell>
        <mxCell id="gr5SGPujoa0xiO7zdh5w-237" value="PC &amp;lt;== AR&lt;div&gt;SC &amp;lt;== 0&lt;/div&gt;" style="whiteSpace=wrap;html=1;" parent="1" vertex="1">
          <mxGeometry x="1820" y="2070" width="120" height="60" as="geometry" />
        </mxCell>
        <mxCell id="gr5SGPujoa0xiO7zdh5w-248" value="" style="edgeStyle=orthogonalEdgeStyle;rounded=0;orthogonalLoop=1;jettySize=auto;html=1;" parent="1" source="gr5SGPujoa0xiO7zdh5w-244" target="gr5SGPujoa0xiO7zdh5w-247" edge="1">
          <mxGeometry relative="1" as="geometry" />
        </mxCell>
        <mxCell id="gr5SGPujoa0xiO7zdh5w-251" value="1" style="edgeLabel;html=1;align=center;verticalAlign=middle;resizable=0;points=[];" parent="gr5SGPujoa0xiO7zdh5w-248" vertex="1" connectable="0">
          <mxGeometry x="-0.4259" y="1" relative="1" as="geometry">
            <mxPoint as="offset" />
          </mxGeometry>
        </mxCell>
        <mxCell id="gr5SGPujoa0xiO7zdh5w-253" value="" style="edgeStyle=orthogonalEdgeStyle;rounded=0;orthogonalLoop=1;jettySize=auto;html=1;" parent="1" source="gr5SGPujoa0xiO7zdh5w-244" target="gr5SGPujoa0xiO7zdh5w-252" edge="1">
          <mxGeometry relative="1" as="geometry" />
        </mxCell>
        <mxCell id="gr5SGPujoa0xiO7zdh5w-266" value="0" style="edgeLabel;html=1;align=center;verticalAlign=middle;resizable=0;points=[];" parent="gr5SGPujoa0xiO7zdh5w-253" vertex="1" connectable="0">
          <mxGeometry x="-0.1306" y="-2" relative="1" as="geometry">
            <mxPoint as="offset" />
          </mxGeometry>
        </mxCell>
        <mxCell id="gr5SGPujoa0xiO7zdh5w-244" value="&lt;b&gt;D5&lt;/b&gt;" style="rhombus;whiteSpace=wrap;html=1;" parent="1" vertex="1">
          <mxGeometry x="2040" y="1900" width="80" height="80" as="geometry" />
        </mxCell>
        <mxCell id="gr5SGPujoa0xiO7zdh5w-250" value="" style="edgeStyle=orthogonalEdgeStyle;rounded=0;orthogonalLoop=1;jettySize=auto;html=1;" parent="1" source="gr5SGPujoa0xiO7zdh5w-247" target="gr5SGPujoa0xiO7zdh5w-249" edge="1">
          <mxGeometry relative="1" as="geometry" />
        </mxCell>
        <mxCell id="gr5SGPujoa0xiO7zdh5w-247" value="M[AR] &amp;lt;== PC&lt;div&gt;AR &amp;lt;== AR + 1&lt;/div&gt;" style="whiteSpace=wrap;html=1;" parent="1" vertex="1">
          <mxGeometry x="2020" y="2070" width="120" height="60" as="geometry" />
        </mxCell>
        <mxCell id="gr5SGPujoa0xiO7zdh5w-273" style="edgeStyle=orthogonalEdgeStyle;rounded=0;orthogonalLoop=1;jettySize=auto;html=1;" parent="1" source="gr5SGPujoa0xiO7zdh5w-249" edge="1">
          <mxGeometry relative="1" as="geometry">
            <mxPoint x="2080" y="2640" as="targetPoint" />
          </mxGeometry>
        </mxCell>
        <mxCell id="gr5SGPujoa0xiO7zdh5w-249" value="PC &amp;lt;== AR&lt;div&gt;SC &amp;lt;== 0&lt;/div&gt;" style="whiteSpace=wrap;html=1;" parent="1" vertex="1">
          <mxGeometry x="2020" y="2210" width="120" height="60" as="geometry" />
        </mxCell>
        <mxCell id="gr5SGPujoa0xiO7zdh5w-255" value="" style="edgeStyle=orthogonalEdgeStyle;rounded=0;orthogonalLoop=1;jettySize=auto;html=1;" parent="1" source="gr5SGPujoa0xiO7zdh5w-252" target="gr5SGPujoa0xiO7zdh5w-254" edge="1">
          <mxGeometry relative="1" as="geometry" />
        </mxCell>
        <mxCell id="gr5SGPujoa0xiO7zdh5w-268" value="1" style="edgeLabel;html=1;align=center;verticalAlign=middle;resizable=0;points=[];" parent="gr5SGPujoa0xiO7zdh5w-255" vertex="1" connectable="0">
          <mxGeometry x="-0.2963" y="1" relative="1" as="geometry">
            <mxPoint as="offset" />
          </mxGeometry>
        </mxCell>
        <mxCell id="gr5SGPujoa0xiO7zdh5w-272" style="edgeStyle=orthogonalEdgeStyle;rounded=0;orthogonalLoop=1;jettySize=auto;html=1;" parent="1" source="gr5SGPujoa0xiO7zdh5w-252" edge="1">
          <mxGeometry relative="1" as="geometry">
            <mxPoint x="2600" y="2640.8" as="targetPoint" />
          </mxGeometry>
        </mxCell>
        <mxCell id="gr5SGPujoa0xiO7zdh5w-252" value="&lt;b&gt;D6&lt;/b&gt;" style="rhombus;whiteSpace=wrap;html=1;" parent="1" vertex="1">
          <mxGeometry x="2240" y="1900" width="80" height="80" as="geometry" />
        </mxCell>
        <mxCell id="gr5SGPujoa0xiO7zdh5w-257" value="" style="edgeStyle=orthogonalEdgeStyle;rounded=0;orthogonalLoop=1;jettySize=auto;html=1;" parent="1" source="gr5SGPujoa0xiO7zdh5w-254" target="gr5SGPujoa0xiO7zdh5w-256" edge="1">
          <mxGeometry relative="1" as="geometry" />
        </mxCell>
        <mxCell id="gr5SGPujoa0xiO7zdh5w-254" value="DR &amp;lt;== M[AR]" style="whiteSpace=wrap;html=1;" parent="1" vertex="1">
          <mxGeometry x="2220" y="2070" width="120" height="60" as="geometry" />
        </mxCell>
        <mxCell id="gr5SGPujoa0xiO7zdh5w-259" value="" style="edgeStyle=orthogonalEdgeStyle;rounded=0;orthogonalLoop=1;jettySize=auto;html=1;" parent="1" source="gr5SGPujoa0xiO7zdh5w-256" target="gr5SGPujoa0xiO7zdh5w-258" edge="1">
          <mxGeometry relative="1" as="geometry" />
        </mxCell>
        <mxCell id="gr5SGPujoa0xiO7zdh5w-256" value="DR &amp;lt;== DR + 1" style="whiteSpace=wrap;html=1;" parent="1" vertex="1">
          <mxGeometry x="2220" y="2210" width="120" height="60" as="geometry" />
        </mxCell>
        <mxCell id="gr5SGPujoa0xiO7zdh5w-261" value="" style="edgeStyle=orthogonalEdgeStyle;rounded=0;orthogonalLoop=1;jettySize=auto;html=1;" parent="1" source="gr5SGPujoa0xiO7zdh5w-258" target="gr5SGPujoa0xiO7zdh5w-260" edge="1">
          <mxGeometry relative="1" as="geometry" />
        </mxCell>
        <mxCell id="gr5SGPujoa0xiO7zdh5w-262" value="1" style="edgeLabel;html=1;align=center;verticalAlign=middle;resizable=0;points=[];" parent="gr5SGPujoa0xiO7zdh5w-261" vertex="1" connectable="0">
          <mxGeometry x="0.1458" y="2" relative="1" as="geometry">
            <mxPoint as="offset" />
          </mxGeometry>
        </mxCell>
        <mxCell id="gr5SGPujoa0xiO7zdh5w-264" value="" style="edgeStyle=orthogonalEdgeStyle;rounded=0;orthogonalLoop=1;jettySize=auto;html=1;" parent="1" source="gr5SGPujoa0xiO7zdh5w-258" target="gr5SGPujoa0xiO7zdh5w-263" edge="1">
          <mxGeometry relative="1" as="geometry" />
        </mxCell>
        <mxCell id="gr5SGPujoa0xiO7zdh5w-265" value="0" style="edgeLabel;html=1;align=center;verticalAlign=middle;resizable=0;points=[];" parent="gr5SGPujoa0xiO7zdh5w-264" vertex="1" connectable="0">
          <mxGeometry x="-0.544" relative="1" as="geometry">
            <mxPoint as="offset" />
          </mxGeometry>
        </mxCell>
        <mxCell id="gr5SGPujoa0xiO7zdh5w-258" value="DR" style="rhombus;whiteSpace=wrap;html=1;" parent="1" vertex="1">
          <mxGeometry x="2240" y="2360" width="80" height="80" as="geometry" />
        </mxCell>
        <mxCell id="gr5SGPujoa0xiO7zdh5w-271" style="edgeStyle=orthogonalEdgeStyle;rounded=0;orthogonalLoop=1;jettySize=auto;html=1;" parent="1" source="gr5SGPujoa0xiO7zdh5w-260" edge="1">
          <mxGeometry relative="1" as="geometry">
            <mxPoint x="2280" y="2640" as="targetPoint" />
          </mxGeometry>
        </mxCell>
        <mxCell id="gr5SGPujoa0xiO7zdh5w-260" value="M[AR] &amp;lt;== DR&lt;div&gt;SC &amp;lt;== 0&lt;/div&gt;" style="whiteSpace=wrap;html=1;" parent="1" vertex="1">
          <mxGeometry x="2220" y="2520" width="120" height="60" as="geometry" />
        </mxCell>
        <mxCell id="gr5SGPujoa0xiO7zdh5w-270" style="edgeStyle=orthogonalEdgeStyle;rounded=0;orthogonalLoop=1;jettySize=auto;html=1;" parent="1" source="gr5SGPujoa0xiO7zdh5w-263" edge="1">
          <mxGeometry relative="1" as="geometry">
            <mxPoint x="2480" y="2640" as="targetPoint" />
          </mxGeometry>
        </mxCell>
        <mxCell id="gr5SGPujoa0xiO7zdh5w-263" value="PC &amp;lt;== PC + 1&lt;div&gt;M[AR] &amp;lt;== DR&lt;/div&gt;&lt;div&gt;SC &amp;lt;== 0&lt;/div&gt;" style="whiteSpace=wrap;html=1;" parent="1" vertex="1">
          <mxGeometry x="2420" y="2520" width="120" height="60" as="geometry" />
        </mxCell>
        <mxCell id="gr5SGPujoa0xiO7zdh5w-269" value="" style="endArrow=classic;html=1;rounded=0;" parent="1" edge="1">
          <mxGeometry width="50" height="50" relative="1" as="geometry">
            <mxPoint x="3200" y="2640" as="sourcePoint" />
            <mxPoint x="-3300" y="2640" as="targetPoint" />
          </mxGeometry>
        </mxCell>
        <mxCell id="gr5SGPujoa0xiO7zdh5w-320" value="" style="endArrow=classic;html=1;rounded=0;" parent="1" edge="1">
          <mxGeometry width="50" height="50" relative="1" as="geometry">
            <mxPoint x="-3300" y="2640" as="sourcePoint" />
            <mxPoint x="-3300" y="120" as="targetPoint" />
          </mxGeometry>
        </mxCell>
        <mxCell id="gr5SGPujoa0xiO7zdh5w-321" value="" style="endArrow=classic;html=1;rounded=0;entryX=0;entryY=0.5;entryDx=0;entryDy=0;" parent="1" target="gr5SGPujoa0xiO7zdh5w-1" edge="1">
          <mxGeometry width="50" height="50" relative="1" as="geometry">
            <mxPoint x="-3300" y="120" as="sourcePoint" />
            <mxPoint x="-3250" y="70" as="targetPoint" />
          </mxGeometry>
        </mxCell>
        <mxCell id="Q0xvPT4TX78QVvxA5zAo-1" value="Setting after T[2]" style="text;html=1;align=center;verticalAlign=middle;whiteSpace=wrap;rounded=0;" vertex="1" parent="1">
          <mxGeometry x="2965" y="1240" width="270" height="70" as="geometry" />
        </mxCell>
        <mxCell id="Q0xvPT4TX78QVvxA5zAo-4" value="" style="endArrow=classic;html=1;rounded=0;exitX=0.5;exitY=1;exitDx=0;exitDy=0;fillColor=#dae8fc;strokeColor=#6c8ebf;" edge="1" parent="1" source="gr5SGPujoa0xiO7zdh5w-16">
          <mxGeometry width="50" height="50" relative="1" as="geometry">
            <mxPoint x="330" y="1020" as="sourcePoint" />
            <mxPoint x="580" y="2641.6666666666665" as="targetPoint" />
          </mxGeometry>
        </mxCell>
      </root>
    </mxGraphModel>
  </diagram>
</mxfile>
